<?xml version="1.0" encoding="UTF-8"?>
<svg id="OBJECT" xmlns="http://www.w3.org/2000/svg" version="1.1" viewBox="0 0 673 353.8">
  <!-- Generator: Adobe Illustrator 29.5.1, SVG Export Plug-In . SVG Version: 2.1.0 Build 141)  -->
  <defs>
    <style>
      .st0 {
        fill: #fffaf0;
      }
    </style>
  </defs>
  <g>
    <path class="st0" d="M537.4,116.3c-2-2.6-3.5-5.5-4.5-8.7-.6-1.9-2.6-3-4.5-2.4-1.9.6-3,2.6-2.4,4.5,1.2,4,3.1,7.7,5.7,11,1,1.3,2.8,1.8,4.3,1.2s.6-.3.8-.5c1.6-1.2,1.9-3.5.7-5.1Z"/>
    <path class="st0" d="M612.6,57c-6.3-4.3-13.7-6.2-21.1-5.9l-4.8-22.9c-.3-1.5-1.5-2.6-2.9-2.9-1.5-.3-3,.4-3.7,1.7l-10.4,17.1c-2.5-3.7-5.6-7-9.2-9.8l-6.9-5.4c-1-.8-2.4-1-3.6-.5s-2.1,1.6-2.2,2.9l-1.1,8.7c-.6,4.4-.5,9,.3,13.4l-19.3-4.9c-1.5-.4-3,.2-3.9,1.4-.9,1.2-.9,2.8-.1,4.1l12.6,19.6c-6.1,5.4-10.2,12.7-11.4,21.2-.3,2,1.1,3.8,3.1,4.1,2,.3,3.8-1.1,4.1-3.1,1.1-7.5,5-13.9,10.9-18.2l14-6.6,17.9-7.3h0s14.6-5.1,14.6-5.1c6.6-1,13.3.5,19.1,4.4,7.7,5.2,12.1,13.5,12.1,22.8l-.2,38.1c0,12.8-7.7,24.2-19.6,29-11.8,4.8-25.3,2.1-34.3-7l-20.8-21c-1.4-1.4-3.7-1.4-5.2,0-1.4,1.4-1.4,3.7,0,5.2l20.8,21c11.1,11.2,27.7,14.6,42.3,8.6,14.6-6,24-20,24.1-35.7l.2-38.1c0-11.6-5.7-22.4-15.3-28.9ZM549.4,62.6l1.3,3.1-4.7,1.9c-1.3.5-2.6,1.2-3.8,1.9l-7.5-11.6,14.3,3.6c.1.4.3.8.4,1.1ZM568.7,58.3l-11.2,4.6-2.2-5.6c-1.7-5.2-2.2-10.8-1.5-16.3l.3-2.4,1.9,1.5c5.1,4,9,9.2,11.5,15.1l1.3,3.1ZM584.3,52.3c-1.4.4-2.8.8-4.1,1.4l-4.6,1.9-1.7-4.1,7.7-12.7,2.8,13.5Z"/>
    <ellipse class="st0" cx="604.6" cy="86.7" rx="3.7" ry="6" transform="translate(12.2 235.4) rotate(-22.3)"/>
    <ellipse class="st0" cx="588.3" cy="93.4" rx="3.7" ry="6" transform="translate(8.5 229.7) rotate(-22.3)"/>
    <ellipse class="st0" cx="572" cy="100.1" rx="3.7" ry="6" transform="translate(4.7 224) rotate(-22.3)"/>
    <path class="st0" d="M559.1,105.3c-1.3-3.1-3.8-4.9-5.7-4.1s-2.5,3.9-1.2,7,3.8,4.9,5.7,4.1,2.5-3.9,1.2-7Z"/>
    <path class="st0" d="M607.7,107.5c-1.3-3.1-3.8-4.9-5.7-4.1s-2.5,3.9-1.2,7,3.8,4.9,5.7,4.1,2.5-3.9,1.2-7Z"/>
    <path class="st0" d="M590.1,121.2c1.9-.8,2.5-3.9,1.2-7s-3.8-4.9-5.7-4.1-2.5,3.9-1.2,7,3.8,4.9,5.7,4.1Z"/>
    <path class="st0" d="M575,120.9c-1.3-3.1-3.8-4.9-5.7-4.1-1.9.8-2.5,3.9-1.2,7,1.3,3.1,3.8,4.9,5.7,4.1s2.5-3.9,1.2-7Z"/>
  </g>
  <g>
    <path class="st0" d="M410.7,208.6c1.9.6,4-.5,4.6-2.4l.7-2.3c.6-1.9-.5-4-2.4-4.6-1.9-.6-4,.5-4.6,2.4l-.7,2.3c-.5,1.7.3,3.6,1.9,4.4s.3.1.5.2Z"/>
    <path class="st0" d="M487.6,212.2c-.8-3-2.1-5.8-3.7-8.3l14.2-19.4c.9-1.2.9-2.8.1-4.1-.8-1.3-2.3-1.9-3.8-1.6l-17.5,3.3c.9-3.9,1.2-7.9.9-11.9l-.6-8c0-1.3-.9-2.5-2.1-3s-2.6-.5-3.6.3l-6.6,4.6c-3.3,2.3-6.2,5-8.7,8.1l-8.3-15.7c-.7-1.3-2.1-2.1-3.6-1.9-1.5.2-2.7,1.2-3.1,2.7l-6.3,23.2c-5.8.7-11.4,2.9-16.1,6.8-1.6,1.3-1.8,3.6-.5,5.1,1.3,1.6,3.6,1.8,5.1.5,6-4.9,14-6.5,21.3-4.5l5.6,2.3,15.9,7.7h0s5.2,2.8,5.2,2.8c4.4,3.1,7.6,7.7,9,13,1.8,6.6.6,13.7-3.2,19.3l-8.8,13.1-10.5-5.1c-1.8-.9-4-.1-4.9,1.7s-.1,4,1.7,4.9l9.6,4.6-8.9,13.2-25.5-12.3c-1.8-.9-4-.1-4.9,1.7s-.1,4,1.7,4.9l24.6,11.8-27.3,40.4c-5.6,8.3-16.7,11.3-25.8,7-9.1-4.4-13.6-14.9-10.6-24.5l6.4-20.6,13.1,6.3c1.8.9,4,.1,4.9-1.7s.1-4-1.7-4.9l-14-6.7,14.7-47c.6-1.9-.5-4-2.4-4.6-1.9-.6-4,.5-4.6,2.4l-23.3,74.7c-4.1,13,2.1,27.3,14.4,33.2,12.3,5.9,27.3,1.9,35-9.4l53.3-78.8c5-7.4,6.6-16.7,4.2-25.3ZM486.7,187.6l-7,9.6-4.4-2.4c-.8-.5-1.6-1.1-2.5-1.5l1.5-3.3,12.4-2.4ZM469.1,170l1.4-.9v1.7c.5,5.8-.6,11.7-3.1,16.9l-1.2,2.4-9.4-4.5,2.3-4.6c2.5-4.3,5.9-8,10-10.9ZM442.8,179.5l3.1-11.5,5.9,11.1c-.1.3-.3.6-.4.8l-1.2,2.5c-1-.4-1.9-.7-2.9-1l-4.5-1.9Z"/>
    <path class="st0" d="M445.3,221.6c1.8.9,4,.1,4.9-1.7s.1-4-1.7-4.9l-11.3-5.4c-1.8-.9-4-.1-4.9,1.7s-.1,4,1.7,4.9l11.3,5.4Z"/>
  </g>
  <g>
    <path class="st0" d="M337.7,100.8h0c1.3.6,2.9.4,4.1-.3,2.4-1.5,4.2-3.6,5.3-6.1l.5-1.2c1-2.5,1.2-5.3.6-8.1h0s-.7-2.8-.7-2.8c-.4-1.5-2.3-2.3-3.7-1.5l-2.5,1.5c-2.4,1.5-4.2,3.6-5.3,6.1l-.5,1.2c-1,2.5-1.2,5.3-.6,8.1.3,1.4,1.3,2.6,2.7,3.1ZM340.6,90.3c.6-1.4,1.6-2.6,2.9-3.6.3,1.6.1,3.2-.4,4.6l-.5,1.2c-.6,1.4-1.6,2.6-2.9,3.6-.3-1.6-.1-3.2.4-4.6l.5-1.2Z"/>
    <path class="st0" d="M353.3,107.3h0c1.3.6,2.9.4,4.1-.3,2.4-1.5,4.2-3.6,5.3-6.1l.5-1.2c1-2.5,1.2-5.3.6-8.1h0s-.7-2.8-.7-2.8c-.4-1.5-2.3-2.3-3.7-1.5l-2.5,1.5c-2.4,1.5-4.2,3.6-5.3,6.1l-.5,1.2c-1,2.5-1.2,5.3-.6,8.1.3,1.4,1.3,2.6,2.7,3.1ZM356.2,96.7c.6-1.4,1.6-2.6,2.9-3.6.3,1.6.1,3.2-.4,4.6l-.5,1.2c-.6,1.4-1.6,2.6-2.9,3.6-.3-1.6-.1-3.2.4-4.6l.5-1.2Z"/>
    <path class="st0" d="M412,72.6c-1.1-10.6-7.3-19.5-16-24.5.3-.1.6-.2,1-.4l3.3-1.4c6.1-2.6,11.3-7.1,15-13l4.1-6.6c.6-1,.7-2.2.3-3.3-.4-1.1-1.4-1.9-2.5-2.2l-7.6-1.8c-6.9-1.6-13.7-1.1-19.9,1.5l-3.3,1.4c-1.4.6-2.8,1.3-4.1,2.1l1.8-4.4c.8-1.9-.1-4-2-4.8s-4,.1-4.8,2l-9.5,23c-1.6-1-3.2-2.1-4.6-3.5-7.2-7-17.1-10.1-27-8.7-2,.3-3.4,2.1-3.1,4.1.3,2,2.1,3.4,4.1,3.1,7.7-1.1,15.3,1.4,21,6.8,5.9,5.7,13.7,8.9,21.9,9,12.6.2,23.2,9.9,24.6,22.4,1.4,12.7-.5,25.7-5.3,37.5s-16.8,25.6-30.7,32.1l-13.3,6.2c-2.5,1.1-5.2,1.2-7.7.2-2.5-1-4.5-2.9-5.5-5.4-1.8-4.2-5.1-7.5-9.3-9.3s-8.9-1.7-13.1,0c-2.5,1-5.2,1-7.7,0-2.5-1.1-4.4-3.1-5.3-5.6l-5.1-13.8c-5.3-14.4-5-30.2.8-44.4,3-7.2,7-13.9,12-19.8,1.3-1.5,1.1-3.8-.5-5.1-1.6-1.3-3.8-1.1-5.1.5-5.4,6.5-9.9,13.9-13.1,21.7-6.6,15.9-6.9,33.5-.9,49.7l5.1,13.8c1.6,4.4,4.9,7.9,9.2,9.8,4.3,1.9,9.1,1.9,13.5.1,2.4-1,5.1-1,7.6,0s4.3,2.9,5.4,5.3c1.8,4.2,5.1,7.5,9.3,9.3s.2,0,.3.1c4.4,1.7,9.2,1.6,13.5-.4l13.3-6.2c15.6-7.2,27.8-20,34.4-35.9s7.4-27.1,5.9-41.1ZM377.5,39.1c2.9-4.7,6.9-8.2,11.6-10.2l3.3-1.4c4.7-2,10-2.3,15.4-1.1l2.7.6-1.4,2.3c-2.9,4.7-6.9,8.2-11.6,10.2l-3.3,1.4c-4.7,2-10,2.3-15.4,1.1l-2.7-.6,1.4-2.3Z"/>
    <path class="st0" d="M317.1,42.5c.4.4.8.7,1.3.9,1.2.5,2.7.3,3.8-.6.9-.8,1.8-1.6,2.7-2.3,1.6-1.3,1.8-3.6.5-5.1-1.3-1.6-3.6-1.8-5.1-.5-1,.8-2,1.7-3,2.5-1.5,1.3-1.6,3.6-.3,5.1Z"/>
  </g>
  <g>
    <path class="st0" d="M642.5,346.1c5.4-.2,9.8-4,10.7-9.4,1-5.4-1.7-10.4-6.7-12.6l-32.9-14.3.7-9.7c1.2-16.8-2-33.2-8.8-47.7l2.4-1.1c4.8-2.2,7.7-7,7.3-12.3-.2-2-.8-4-1.8-5.6-1.6-2.6-4.1-4.6-7.2-5.5l-24.7-7.2c-4.3-3.7-8.9-7.1-14-10-7.4-4.4-16.8-3.1-22.8,3.2-1.3,1.4-1.3,3.6.1,5,1.4,1.3,3.6,1.3,5-.1,3-3.2,8.7-5.2,14.1-2,3.9,2.3,7.5,4.8,10.9,7.6-3.1,3.7-7.2,7.3-11.9,10.1-4.7,2.8-9.7,4.9-14.4,5.9-.1-.5-.2-1-.3-1.5-.4-1.9-2.2-3.2-4.1-2.8-1.9.4-3.2,2.2-2.8,4.1,1.2,6.4,3.1,12.7,5.5,18.6l3.5,32.4c.4,4,2.9,7.5,6.6,9.2,3.7,1.7,7.9,1.4,11.2-.9l5.5-3.7c7.1,6,15.1,11,23.8,14.8l8.9,3.9-2.5,35.8c-.4,5.4,2.9,10.2,8.1,11.8,5.2,1.6,10.5-.5,13.3-5.2l2.4-4.2c2.1-3.7,5.9-6,10.2-6.2l4.8-.2ZM555.6,275.5c3.7,5.5,7.8,10.6,12.6,15.3l-4.1,2.7c-1.3.9-2.9,1-4.3.3-1.4-.7-2.4-2-2.5-3.5l-1.6-14.8ZM557.3,264.5c-1.1-2-2.1-4.1-3-6.2,6.2-.9,12.7-3.4,18.8-7.1s11.3-8.4,15-13.4c1.4,1.8,2.8,3.6,4.1,5.5-.2.1-.4.3-.5.5-3.5,5-8.7,9.8-14.9,13.5s-12.8,6.2-18.8,6.9c-.2,0-.5.1-.7.2ZM550.1,247.2c5.4-1.2,11-3.5,16.4-6.7,5.3-3.2,9.9-7.1,13.5-11.4,1.7,1.7,3.4,3.4,5,5.1,0,0-.1.1-.1.2-3.3,4.8-8.3,9.4-14.2,12.9s-12.2,5.9-18,6.6c0,0-.2,0-.3,0-.8-2.2-1.6-4.5-2.2-6.8ZM602.3,246.1c-.5-.9-1-1.7-1.5-2.6-2.7-4.4-5.7-8.6-9.1-12.5l12.6,3.6c2.7.8,3.8,3,3.9,4.9.1,1.8-.6,4.2-3.2,5.4l-2.7,1.2ZM606.8,306.9l-6.7-2.9c-8.9-3.8-16.9-9.1-23.9-15.3,0,0,0-.1-.1-.2-6.4-5.7-11.9-12.4-16.4-19.7,6.4-1,13.1-3.5,19.5-7.4,6.4-3.9,11.7-8.7,15.6-13.9,1,1.6,1.9,3.2,2.7,4.9.1.2.3.4.4.6,7.2,14.1,10.5,30.1,9.4,46.7l-.5,7.3ZM621.4,348.9l-2.4,4.2c-1.3,2.2-3.5,2.5-5.1,2-1.6-.5-3.3-2-3.1-4.5l2.4-33.3,30.6,13.3c2.4,1,2.9,3.2,2.6,4.9-.3,1.7-1.6,3.5-4.2,3.6l-4.8.2c-6.6.3-12.6,3.9-15.9,9.7Z"/>
    <path class="st0" d="M546.2,225.5c.3.5.5,1,.5,1.6,0,.6,0,1.2.1,1.9.1,1.9-1.3,3.6-3.2,3.8-1.9.1-3.6-1.3-3.8-3.2,0-.7,0-1.3-.1-2-.1-1.9,1.4-3.6,3.3-3.7,1.3,0,2.5.6,3.2,1.7Z"/>
  </g>
  <g>
    <path class="st0" d="M30.7,235.6c.4,0,.8-.1,1.1-.3,1.4-.6,2.4-2,2.3-3.6,0-1.2,0-2.5,0-3.7.1-2-1.4-3.7-3.4-3.9-2-.1-3.7,1.4-3.9,3.4,0,1.5,0,3.1,0,4.6.1,2,1.9,3.5,3.9,3.4Z"/>
    <path class="st0" d="M83.3,196.8c-10-5.6-21.9-6.4-32.6-2.2-8.3,3.3-15.1,9.4-19.3,17.2-1,1.8-.3,4,1.5,4.9,1.8,1,4,.3,4.9-1.5,3.4-6.4,8.8-11.2,15.6-13.8,8.6-3.4,18.2-2.8,26.3,1.8,8.1,4.6,13.6,12.4,15.2,21.6l10.6,62.5c.8,4.5-1.8,9-6,10.7l-13.1,5.2c-4.3,1.7-9.2.2-11.8-3.6l-35.3-52.7c-1.1-1.7-3.4-2.1-5.1-1-1.7,1.1-2.1,3.4-1,5.1l35.3,52.7c3.1,4.7,8.3,7.4,13.7,7.5l8.5,21.3c-4.3,4-5.8,10.2-3.6,15.9,2.9,7.4,11.4,11,18.8,8.1s5.3-3.2,6.9-5.8c2.9.8,6.1.6,9-.5,7.4-2.9,11-11.4,8.1-18.8-2.2-5.6-7.6-9.1-13.5-9.1l-8.5-21.3c3.8-3.8,5.7-9.4,4.8-14.9l-10.6-62.5c-1.9-11.4-8.8-21.1-18.8-26.7ZM123,334.1c1.5,3.7-.3,7.8-4,9.3-2,.8-4.3.6-6.3-.5-1-.6-2.2-.7-3.2-.3s-1.8,1.3-2.2,2.4c-.6,2.2-2.1,3.9-4.2,4.7-3.7,1.5-7.8-.3-9.3-4s0-7,3-8.8c1.6-.9,2.2-2.8,1.5-4.5l-9-22.6,12.1-4.8,9,22.6c.7,1.7,2.5,2.6,4.2,2.2,3.5-.8,6.9,1,8.2,4.3Z"/>
    <path class="st0" d="M74.4,235c1.9-.7,2.8-2.9,2-4.7l-.2-.4c-.7-1.9-2.9-2.8-4.7-2s-2.8,2.9-2,4.7l.2.4c.7,1.9,2.9,2.8,4.7,2Z"/>
    <path class="st0" d="M63.9,263.2l.2.4c.7,1.9,2.9,2.8,4.7,2s2.8-2.9,2-4.7l-.2-.4c-.7-1.9-2.9-2.8-4.7-2s-2.8,2.9-2,4.7Z"/>
    <path class="st0" d="M46.6,224.4c-1.9.7-2.8,2.9-2,4.7l.2.4c.7,1.9,2.9,2.8,4.7,2s2.8-2.9,2-4.7l-.2-.4c-.7-1.9-2.9-2.8-4.7-2Z"/>
    <path class="st0" d="M87.9,279c.7,1.9,2.9,2.8,4.7,2s2.8-2.9,2-4.7l-.2-.4c-.7-1.9-2.9-2.8-4.7-2-1.9.7-2.8,2.9-2,4.7l.2.4Z"/>
  </g>
  <g>
    <path class="st0" d="M286,215.8c.8-3,.2-6.2-1.9-8.6l-33.6-39.5-6.5-7.6s0,0,0,0l-8.6-10.1c-2.3-2.7-5.6-4.5-9.1-4.9s-6.8.4-9.6,2.3l-9.4,6.2c-1.7,1.1-2.1,3.4-1,5.1,1.1,1.7,3.4,2.1,5.1,1l9.4-6.2c2.9-1.9,7-1.3,9.2,1.3l5.6,6.5c-3.2,2.3-5.3,5.8-5.8,9.9-1,8,4.7,15.2,12.6,16.2s8.9-1,11.9-4.1l24.3,28.6c.6.7.7,1.6.3,2.4-.5,1-1.6,1.4-2.7,1l-11.9-4.9-13.6-5.5s0,0,0,0l-54.1-22.1c-2.4-1-4.1-3.2-4.4-5.9,0,0,0,0,0-.1,0,0,0-.2,0-.3,0,0,0-.2,0-.3,0,0,0,0,0,0,0-2.4,1.2-4.6,3.2-5.9l5.7-3.8c1.7-1.1,2.1-3.4,1-5.1-1.1-1.7-3.4-2.1-5.1-1l-5.7,3.8c-4,2.7-6.4,7.1-6.4,11.9l-2.1,16.5c-.2,2,1.2,3.8,3.2,4.1s3.8-1.2,4.1-3.2l.7-5.6c.3.2.6.4.8.5.2.1.3.2.5.3.5.3,1.1.6,1.7.8l50.2,20.5c-.5,1.2-.9,2.5-1,3.9-1,8.2,4.8,15.7,13,16.7,6.9.9,13.3-3.1,15.7-9.3l1.7.7c.4.2.8.3,1.1.4.2,0,.4,0,.6.1.2,0,.4,0,.6.1,0,0,0,0,.1,0,.1,0,.2,0,.4,0,.3,0,.6,0,.8,0,.2,0,.3,0,.5,0,.1,0,.3,0,.4,0l-5.8,46.9c-.5-.1-1-.2-1.6,0-.4,0-.7,0-1.1-.1l-79.7-32.5c-2.5-1-4.1-3.3-4.3-6,0-.1,0-.3,0-.4,0-.1,0-.2,0-.4,0-.5,0-1,.2-1.5,0-.1,0-.2,0-.4l2.9-23c.2-2-1.2-3.8-3.2-4.1s-3.8,1.2-4.1,3.2l-2.8,22.8c-.2.9-.3,1.8-.3,2.5,0,.6,0,1.3,0,1.9.5,5.4,3.9,10,8.8,12l79.7,32.5c.8.3,1.6.5,2.4.6s1.1,0,1.7,0c1.7.4,3.5.2,5.1-.7,1.9-1.1,3.2-3,3.5-5.1l6.7-54c0-.4,0-.8,0-1.2ZM249.5,177.7c-1.5,1.8-3.9,2.7-6.3,2.4-4-.5-6.8-4.1-6.3-8.1s1.5-4.1,3.3-5.2l.5.6,8.8,10.3ZM256.8,223.4c-4.2-.5-7.2-4.4-6.7-8.6s.3-1.4.5-2l14.3,5.8c-1.3,3.2-4.6,5.3-8.1,4.8Z"/>
    <path class="st0" d="M226,221.8c.9-6.9-4.1-13.2-11-14.1s-13.2,4.1-14.1,11c-.9,6.9,4.1,13.2,11,14.1s13.2-4.1,14.1-11ZM208.3,219.6c.4-2.9,3-5,5.9-4.6s5,3,4.6,5.9-3,5-5.9,4.6-5-3-4.6-5.9Z"/>
  </g>
  <g>
    <path class="st0" d="M162.7,40.2l-13.2-7.2c-22.2-12.2-46.2-20.6-71.1-25.1l-14.8-2.6c-6.5-1.2-12.9,2.5-15.1,8.8s1.2,14.7,8.2,17.2l1.3.5-2,5.8c-.7,1.9.3,4,2.2,4.6s4-.3,4.6-2.2l3.2-9.2c.7-1.9-.3-4-2.2-4.6l-4.7-1.7c-3.2-1.1-4.9-4.7-3.8-7.9s3.9-4.6,6.9-4l14.8,2.6c24.2,4.3,47.4,12.5,68.9,24.3l13.2,7.2c2.7,1.5,3.9,4.6,2.9,7.5s-4.7,4.9-7.9,3.8l-4.7-1.7c-1.9-.7-4,.3-4.6,2.2l-20.8,59.1c-2.3,6.4-9.3,9.8-15.8,7.5l-55.3-19.5c-6.4-2.3-9.8-9.3-7.5-15.8l8.4-23.8c.7-1.9-.3-4-2.2-4.6s-4,.3-4.6,2.2l-8.4,23.8c-3.6,10.2,1.8,21.5,12,25.1l55.3,19.5c10.2,3.6,21.5-1.8,25.1-12l19.6-55.7,1.3.5c7,2.5,14.7-1.2,17.2-8.2s-.4-13.1-6.2-16.3Z"/>
    <path class="st0" d="M52.9,57.2c1.9.7,4-.3,4.6-2.2l.4-1.1c.7-1.9-.3-4-2.2-4.6s-4,.3-4.6,2.2l-.4,1.1c-.7,1.9.3,4,2.2,4.6Z"/>
    <path class="st0" d="M110.8,99.6c-.3.9-.3,1.9.2,2.8.4.9,1.2,1.6,2.1,1.9s1.9.3,2.8-.2c.9-.4,1.5-1.2,1.9-2.1s.3-1.9-.1-2.8c-.8-1.7-3.1-2.5-4.9-1.7-.9.4-1.5,1.2-1.9,2.1Z"/>
    <path class="st0" d="M95,101.1c-.9.4-1.5,1.2-1.9,2.1s-.3,1.9.2,2.8c.4.9,1.2,1.5,2.1,1.9s1.9.3,2.8-.2c.9-.4,1.5-1.2,1.9-2.1s.3-1.9-.2-2.8c-.8-1.7-3.1-2.5-4.9-1.7Z"/>
    <path class="st0" d="M110.5,86.4c.9.3,1.9.3,2.8-.2.9-.4,1.6-1.2,1.9-2.1s.3-1.9-.2-2.8c-.8-1.7-3.1-2.5-4.9-1.7-.9.4-1.5,1.2-1.9,2.1s-.3,1.9.2,2.8c.4.9,1.2,1.5,2.1,1.9Z"/>
    <path class="st0" d="M124.3,81.2c.9.3,1.9.3,2.8-.2.9-.4,1.5-1.2,1.9-2.1s.3-1.9-.2-2.8c-.8-1.7-3.1-2.6-4.9-1.7-.9.4-1.6,1.2-1.9,2.1s-.3,1.9.2,2.8c.4.9,1.2,1.5,2.1,1.9Z"/>
  </g>
</svg>