<?xml version="1.0" encoding="UTF-8"?>
<svg id="_圖層_2" data-name="圖層 2" xmlns="http://www.w3.org/2000/svg" viewBox="0 0 417.63 379.78">
  <defs>
    <style>
      .cls-1 {
        fill: #fff4dc;
      }

      .cls-2 {
        fill: #faf2be;
      }

      .cls-3 {
        fill: #fff;
      }

      .cls-4 {
        fill: #f3e1b9;
      }

      .cls-5 {
        fill: #82392e;
      }

      .cls-6 {
        fill: #e5cd98;
      }

      .cls-7 {
        fill: #e2bd61;
      }

      .cls-8 {
        fill: #af9a94;
      }

      .cls-9 {
        fill: #fff6e1;
      }

      .cls-10 {
        fill: #d0a443;
      }

      .cls-11 {
        fill: #df6c2d;
      }

      .cls-12 {
        fill: #f2d1b1;
      }
    </style>
  </defs>
  <g id="Layer_1" data-name="Layer 1">
    <g>
      <g>
        <g>
          <path class="cls-6" d="M370.65,83.64c0,.35.02.69.03,1.04,1.25,42.53-3.12,75.68-10.5,101.51l-21.91,13.63,18.02-2.79.51-.08c-9.78,28.39-23.3,46.73-36.07,58.52-7.94,7.36-15.6,12.17-21.89,15.29-.41.21-.82.41-1.23.6-1.01.49-1.99.92-2.93,1.32l-12.05.63c-.17-.56-.32-1.11-.47-1.68-.1-.35-.2-.7-.28-1.06-.13-.46-.25-.93-.37-1.39-14.25-54.9,3.71-98.68,27.16-129.9.06-.11.14-.2.23-.31,8.16-10.83,16.99-20.15,25.34-27.88l5.33,13.57.77-19.01c14.54-12.56,26.64-19.89,29.61-21.62.46-.27.7-.4.7-.4Z"/>
          <polygon class="cls-3" points="371.08 83.84 370.68 84.68 345.93 136.51 345.48 137.43 338.74 151.56 338.5 152.04 316.98 197.09 316.95 197.15 281.89 270.58 281.36 271.68 280.52 273.42 279.47 273.48 280.3 271.73 281.52 269.19 316.12 196.73 316.77 195.38 369.95 84.05 370.24 83.44 371.08 83.84"/>
          <rect class="cls-3" x="335.31" y="141.2" width="37.25" height=".81" transform="translate(-17.92 225.53) rotate(-34.52)"/>
          <rect class="cls-3" x="342.85" y="128.66" width="29.2" height=".81" transform="translate(-10.21 225.29) rotate(-34.52)"/>
          <rect class="cls-3" x="312.41" y="138.72" width=".81" height="58.73" transform="translate(-19.01 41.61) rotate(-7.39)"/>
          <path class="cls-4" d="M277.8,282.73s28.57,13.5,69.22-10.74l-13.18-6.26,21.52.86c15.87-11.1,33.28-28.02,51.36-53.47l-5.03-2.38,6.52.26c3.05-4.35,6.11-8.95,9.19-13.81,0,0-11.94-1.06-29,.91l-8.76,11.86,2.48-11.02c-34.89,5.3-85.69,23.58-104.32,83.78Z"/>
          <rect class="cls-3" x="264.41" y="238.17" width="164.21" height=".91" transform="translate(-73.06 207.46) rotate(-30.31)"/>
          <rect class="cls-3" x="390.21" y="209.95" width=".85" height="20.4" transform="translate(131.59 586.16) rotate(-84.11)"/>
          <rect class="cls-3" x="382.18" y="214.68" width=".85" height="24.04" transform="translate(92.3 563.6) rotate(-79.9)"/>
          <path class="cls-5" d="M311.2,230.62l-.71-.8c11.9-10.58,26.39-18.82,43.06-24.51l.35,1.02c-16.54,5.64-30.9,13.82-42.69,24.3Z"/>
        </g>
        <g>
          <path class="cls-6" d="M27.28,162.93c.05.34.1.68.14,1.03,5.87,42.14,15.71,74.09,27.31,98.33l23.88,9.77-18.24.26h-.52c14.38,26.36,30.77,42.19,45.34,51.69,9.06,5.93,17.42,9.4,24.13,11.42.44.14.88.27,1.31.39,1.08.31,2.12.58,3.1.81l11.99-1.39c.07-.58.13-1.15.18-1.73.04-.36.08-.73.1-1.09.06-.48.09-.96.13-1.44,4.88-56.5-20.14-96.68-48.48-123.53-.08-.09-.17-.18-.28-.27-9.86-9.32-20.11-17.03-29.64-23.25l-2.99,14.27-3.93-18.61c-16.44-9.95-29.59-15.16-32.81-16.37-.5-.19-.76-.28-.76-.28Z"/>
          <polygon class="cls-3" points="26.9 163.19 27.43 163.95 60.49 210.92 61.09 211.75 70.1 224.56 70.41 224.99 99.15 265.81 99.19 265.87 146.03 332.41 146.73 333.4 147.85 334.98 148.9 334.86 147.79 333.28 146.16 330.97 99.94 265.31 99.08 264.09 28.04 163.21 27.66 162.65 26.9 163.19"/>
          <rect class="cls-3" x="53.04" y="198.65" width=".81" height="37.25" transform="translate(-166.13 174.26) rotate(-65.1)"/>
          <rect class="cls-3" x="47.48" y="190.91" width=".81" height="29.2" transform="translate(-158.68 162.4) rotate(-65.1)"/>
          <rect class="cls-3" x="98.01" y="207.15" width=".81" height="58.73" transform="translate(-9.12 4.01) rotate(-2.23)"/>
          <path class="cls-4" d="M152.09,343.7s-25.92,18.08-70.04.98l11.95-8.37-21.07,4.45c-17.5-8.29-37.49-22.06-59.57-44.14l4.56-3.19-6.39,1.34c-3.73-3.78-7.52-7.8-11.37-12.08,0,0,11.59-3.04,28.75-3.94l10.62,10.23-4.29-10.45c35.29-.61,88.43,8.93,116.85,65.17Z"/>
          <rect class="cls-3" x="76.52" y="229.59" width=".91" height="164.21" transform="translate(-241.82 273.58) rotate(-69.31)"/>
          <rect class="cls-3" x="20.18" y="300.43" width="20.4" height=".85" transform="translate(-79.3 19.06) rotate(-15.5)"/>
          <rect class="cls-3" x="27.38" y="305.54" width="24.04" height=".85" transform="translate(-100.93 31.24) rotate(-19.72)"/>
          <path class="cls-5" d="M110.45,297.9l.57-.91c-13.5-8.44-29.16-14.15-46.55-16.98l-.17,1.06c17.25,2.8,32.77,8.46,46.15,16.83Z"/>
        </g>
        <path class="cls-10" d="M157.79,369.9h-28.91c-9.41,0-17.15-7.32-17.54-16.6l-16.31-284.52c-.41-9.84,7.56-18.03,17.54-18.03h33.34l11.88,319.15Z"/>
        <path class="cls-1" d="M300.59,68.78l-8.54,284.52c-.39,9.28-8.12,16.6-17.54,16.6h-127.83c-9.41,0-20.5-7.32-20.89-16.6l-8.53-284.52c-.41-9.84,7.56-18.03,17.54-18.03h148.26c9.98,0,17.95,8.19,17.54,18.03Z"/>
        <path class="cls-8" d="M152.55,70.42h-6.85c-.95,0-1.8.38-2.41,1.01-.63.63-1.01,1.47-1.01,2.42,0,1.89,1.53,3.42,3.42,3.42h125.49c.95,0,1.8-.38,2.41-1.01.63-.61,1.01-1.46,1.01-2.41,0-1.89-1.53-3.43-3.42-3.43h-118.65Z"/>
        <path class="cls-3" d="M269.79,182.4h-121.73c-2.32,0-4.23-1.84-4.32-4.16l-3.02-79.2c-.09-2.45,1.87-4.49,4.32-4.49h127.77c2.45,0,4.42,2.04,4.32,4.49l-3.02,79.2c-.09,2.32-2,4.16-4.32,4.16Z"/>
        <g>
          <g>
            <g>
              <rect class="cls-7" x="153.58" y="215.34" width="30.8" height="20.54" rx="5.99" ry="5.99"/>
              <rect class="cls-7" x="153.58" y="248.86" width="30.8" height="20.54" rx="5.99" ry="5.99"/>
              <rect class="cls-7" x="153.58" y="282.37" width="30.8" height="20.54" rx="5.99" ry="5.99"/>
              <rect class="cls-8" x="153.58" y="315.88" width="30.8" height="20.54" rx="5.99" ry="5.99"/>
            </g>
            <g>
              <rect class="cls-7" x="192.68" y="215.34" width="30.8" height="20.54" rx="5.99" ry="5.99"/>
              <rect class="cls-7" x="192.68" y="248.86" width="30.8" height="20.54" rx="5.99" ry="5.99"/>
              <rect class="cls-7" x="192.68" y="282.37" width="30.8" height="20.54" rx="5.99" ry="5.99"/>
              <rect class="cls-7" x="192.68" y="315.88" width="30.8" height="20.54" rx="5.99" ry="5.99"/>
            </g>
            <g>
              <rect class="cls-7" x="231.78" y="215.34" width="30.8" height="20.54" rx="5.99" ry="5.99"/>
              <rect class="cls-7" x="231.78" y="248.86" width="30.8" height="20.54" rx="5.99" ry="5.99"/>
              <rect class="cls-7" x="231.78" y="282.37" width="30.8" height="20.54" rx="5.99" ry="5.99"/>
              <rect class="cls-8" x="231.78" y="315.88" width="30.8" height="20.54" rx="5.99" ry="5.99"/>
            </g>
          </g>
          <g>
            <g>
              <rect class="cls-11" x="159.17" y="215.34" width="30.8" height="20.54" rx="5.99" ry="5.99"/>
              <rect class="cls-11" x="159.17" y="248.86" width="30.8" height="20.54" rx="5.99" ry="5.99"/>
              <rect class="cls-11" x="159.17" y="282.37" width="30.8" height="20.54" rx="5.99" ry="5.99"/>
              <rect class="cls-8" x="159.17" y="315.88" width="30.8" height="20.54" rx="5.99" ry="5.99"/>
            </g>
            <g>
              <rect class="cls-11" x="198.27" y="215.34" width="30.8" height="20.54" rx="5.99" ry="5.99"/>
              <rect class="cls-11" x="198.27" y="248.86" width="30.8" height="20.54" rx="5.99" ry="5.99"/>
              <rect class="cls-11" x="198.27" y="282.37" width="30.8" height="20.54" rx="5.99" ry="5.99"/>
              <rect class="cls-11" x="198.27" y="315.88" width="30.8" height="20.54" rx="5.99" ry="5.99"/>
            </g>
            <g>
              <path class="cls-11" d="M243.35,215.34h18.82c3.31,0,5.99,2.68,5.99,5.99v8.56c0,3.31-2.68,5.99-5.99,5.99h-18.82c-3.31,0-5.99-2.68-5.99-5.99v-8.56c0-3.31,2.68-5.99,5.99-5.99Z"/>
              <path class="cls-11" d="M243.35,248.86h18.82c3.31,0,5.99,2.68,5.99,5.99v8.56c0,3.31-2.68,5.99-5.99,5.99h-18.82c-3.31,0-5.99-2.68-5.99-5.99v-8.56c0-3.31,2.68-5.99,5.99-5.99Z"/>
              <path class="cls-11" d="M243.35,282.37h18.82c3.31,0,5.99,2.68,5.99,5.99v8.56c0,3.31-2.68,5.99-5.99,5.99h-18.82c-3.31,0-5.99-2.68-5.99-5.99v-8.56c0-3.31,2.68-5.99,5.99-5.99Z"/>
              <path class="cls-8" d="M243.35,315.88h18.82c3.31,0,5.99,2.68,5.99,5.99v8.56c0,3.31-2.68,5.99-5.99,5.99h-18.82c-3.31,0-5.99-2.68-5.99-5.99v-8.56c0-3.31,2.68-5.99,5.99-5.99Z"/>
            </g>
          </g>
          <g>
            <g>
              <path class="cls-3" d="M183.98,236.44h-18.82c-3.61,0-6.55-2.94-6.55-6.55v-8.56c0-3.61,2.94-6.55,6.55-6.55h18.82c3.61,0,6.55,2.94,6.55,6.55v8.56c0,3.61-2.94,6.55-6.55,6.55ZM165.16,215.9c-2.99,0-5.43,2.44-5.43,5.43v8.56c0,2.99,2.44,5.43,5.43,5.43h18.82c2.99,0,5.43-2.44,5.43-5.43v-8.56c0-2.99-2.44-5.43-5.43-5.43h-18.82Z"/>
              <path class="cls-3" d="M183.98,269.95h-18.82c-3.61,0-6.55-2.94-6.55-6.55v-8.56c0-3.61,2.94-6.55,6.55-6.55h18.82c3.61,0,6.55,2.94,6.55,6.55v8.56c0,3.61-2.94,6.55-6.55,6.55ZM165.16,249.41c-2.99,0-5.43,2.44-5.43,5.43v8.56c0,2.99,2.44,5.43,5.43,5.43h18.82c2.99,0,5.43-2.44,5.43-5.43v-8.56c0-2.99-2.44-5.43-5.43-5.43h-18.82Z"/>
              <path class="cls-3" d="M183.98,303.46h-18.82c-3.61,0-6.55-2.94-6.55-6.55v-8.56c0-3.61,2.94-6.55,6.55-6.55h18.82c3.61,0,6.55,2.94,6.55,6.55v8.56c0,3.61-2.94,6.55-6.55,6.55ZM165.16,282.93c-2.99,0-5.43,2.44-5.43,5.43v8.56c0,2.99,2.44,5.43,5.43,5.43h18.82c2.99,0,5.43-2.44,5.43-5.43v-8.56c0-2.99-2.44-5.43-5.43-5.43h-18.82Z"/>
              <path class="cls-3" d="M183.98,336.98h-18.82c-3.61,0-6.55-2.94-6.55-6.55v-8.56c0-3.61,2.94-6.55,6.55-6.55h18.82c3.61,0,6.55,2.94,6.55,6.55v8.56c0,3.61-2.94,6.55-6.55,6.55ZM165.16,316.44c-2.99,0-5.43,2.44-5.43,5.43v8.56c0,2.99,2.44,5.43,5.43,5.43h18.82c2.99,0,5.43-2.44,5.43-5.43v-8.56c0-2.99-2.44-5.43-5.43-5.43h-18.82Z"/>
            </g>
            <g>
              <path class="cls-3" d="M223.08,236.44h-18.82c-3.61,0-6.55-2.94-6.55-6.55v-8.56c0-3.61,2.94-6.55,6.55-6.55h18.82c3.61,0,6.55,2.94,6.55,6.55v8.56c0,3.61-2.94,6.55-6.55,6.55ZM204.26,215.9c-2.99,0-5.43,2.44-5.43,5.43v8.56c0,2.99,2.44,5.43,5.43,5.43h18.82c2.99,0,5.43-2.44,5.43-5.43v-8.56c0-2.99-2.44-5.43-5.43-5.43h-18.82Z"/>
              <path class="cls-3" d="M223.08,269.95h-18.82c-3.61,0-6.55-2.94-6.55-6.55v-8.56c0-3.61,2.94-6.55,6.55-6.55h18.82c3.61,0,6.55,2.94,6.55,6.55v8.56c0,3.61-2.94,6.55-6.55,6.55ZM204.26,249.41c-2.99,0-5.43,2.44-5.43,5.43v8.56c0,2.99,2.44,5.43,5.43,5.43h18.82c2.99,0,5.43-2.44,5.43-5.43v-8.56c0-2.99-2.44-5.43-5.43-5.43h-18.82Z"/>
              <path class="cls-3" d="M223.08,303.46h-18.82c-3.61,0-6.55-2.94-6.55-6.55v-8.56c0-3.61,2.94-6.55,6.55-6.55h18.82c3.61,0,6.55,2.94,6.55,6.55v8.56c0,3.61-2.94,6.55-6.55,6.55ZM204.26,282.93c-2.99,0-5.43,2.44-5.43,5.43v8.56c0,2.99,2.44,5.43,5.43,5.43h18.82c2.99,0,5.43-2.44,5.43-5.43v-8.56c0-2.99-2.44-5.43-5.43-5.43h-18.82Z"/>
              <path class="cls-3" d="M223.08,336.98h-18.82c-3.61,0-6.55-2.94-6.55-6.55v-8.56c0-3.61,2.94-6.55,6.55-6.55h18.82c3.61,0,6.55,2.94,6.55,6.55v8.56c0,3.61-2.94,6.55-6.55,6.55ZM204.26,316.44c-2.99,0-5.43,2.44-5.43,5.43v8.56c0,2.99,2.44,5.43,5.43,5.43h18.82c2.99,0,5.43-2.44,5.43-5.43v-8.56c0-2.99-2.44-5.43-5.43-5.43h-18.82Z"/>
            </g>
            <g>
              <path class="cls-3" d="M262.18,236.44h-18.82c-3.61,0-6.55-2.94-6.55-6.55v-8.56c0-3.61,2.94-6.55,6.55-6.55h18.82c3.61,0,6.55,2.94,6.55,6.55v8.56c0,3.61-2.94,6.55-6.55,6.55ZM243.35,215.9c-2.99,0-5.43,2.44-5.43,5.43v8.56c0,2.99,2.44,5.43,5.43,5.43h18.82c2.99,0,5.43-2.44,5.43-5.43v-8.56c0-2.99-2.44-5.43-5.43-5.43h-18.82Z"/>
              <path class="cls-3" d="M262.18,269.95h-18.82c-3.61,0-6.55-2.94-6.55-6.55v-8.56c0-3.61,2.94-6.55,6.55-6.55h18.82c3.61,0,6.55,2.94,6.55,6.55v8.56c0,3.61-2.94,6.55-6.55,6.55ZM243.35,249.41c-2.99,0-5.43,2.44-5.43,5.43v8.56c0,2.99,2.44,5.43,5.43,5.43h18.82c2.99,0,5.43-2.44,5.43-5.43v-8.56c0-2.99-2.44-5.43-5.43-5.43h-18.82Z"/>
              <path class="cls-3" d="M262.18,303.46h-18.82c-3.61,0-6.55-2.94-6.55-6.55v-8.56c0-3.61,2.94-6.55,6.55-6.55h18.82c3.61,0,6.55,2.94,6.55,6.55v8.56c0,3.61-2.94,6.55-6.55,6.55ZM243.35,282.93c-2.99,0-5.43,2.44-5.43,5.43v8.56c0,2.99,2.44,5.43,5.43,5.43h18.82c2.99,0,5.43-2.44,5.43-5.43v-8.56c0-2.99-2.44-5.43-5.43-5.43h-18.82Z"/>
              <path class="cls-3" d="M262.18,336.98h-18.82c-3.61,0-6.55-2.94-6.55-6.55v-8.56c0-3.61,2.94-6.55,6.55-6.55h18.82c3.61,0,6.55,2.94,6.55,6.55v8.56c0,3.61-2.94,6.55-6.55,6.55ZM243.35,316.44c-2.99,0-5.43,2.44-5.43,5.43v8.56c0,2.99,2.44,5.43,5.43,5.43h18.82c2.99,0,5.43-2.44,5.43-5.43v-8.56c0-2.99-2.44-5.43-5.43-5.43h-18.82Z"/>
            </g>
          </g>
        </g>
        <path class="cls-8" d="M258.98,370.65h-112.31c-9.67,0-21.23-7.57-21.64-17.32l-8.53-284.53c-.21-4.91,1.57-9.58,4.99-13.15,3.49-3.64,8.21-5.65,13.29-5.65h148.26c5.08,0,9.8,2,13.29,5.65,3.43,3.57,5.2,8.25,4.99,13.16l-.46,15.52-1.5-.04.47-15.53c.19-4.51-1.44-8.8-4.58-12.07-3.21-3.34-7.54-5.18-12.21-5.18h-148.26c-4.67,0-9,1.84-12.21,5.18-3.14,3.27-4.77,7.56-4.58,12.06l8.53,284.53c.37,8.94,11.13,15.87,20.14,15.87h112.31v1.5Z"/>
        <rect class="cls-8" x="213.57" y="209.97" width="165.51" height="1.5" transform="translate(76.83 500.61) rotate(-88.29)"/>
        <path class="cls-3" d="M264.3,15.69v61.57h-111.61V15.69c-.27-4.24-2.21-8.04-5.15-10.78-2.95-2.74-6.91-4.41-11.22-4.41h111.61c4.31,0,8.27,1.68,11.22,4.41s4.88,6.53,5.15,10.78Z"/>
        <path class="cls-5" d="M152.69,15.69h-32.74c.27-4.24,2.21-8.04,5.16-10.78,2.95-2.74,6.91-4.41,11.22-4.41s8.27,1.68,11.22,4.41c2.94,2.74,4.88,6.53,5.15,10.78Z"/>
        <path class="cls-5" d="M264.8,77.77h-112.61V15.69c-.25-3.94-2.02-7.65-4.99-10.41-2.97-2.76-6.83-4.28-10.87-4.28V0h111.61c4.29,0,8.4,1.61,11.55,4.55,3.16,2.93,5.04,6.88,5.31,11.12v.03s0,62.07,0,62.07ZM153.19,76.77h110.61V15.71c-.26-3.98-2.03-7.68-4.99-10.43-2.97-2.76-6.84-4.28-10.87-4.28h-105.87c2.13.77,4.11,1.97,5.81,3.55,3.16,2.94,5.04,6.89,5.31,11.12v61.11Z"/>
        <path class="cls-5" d="M271.19,77.77h-125.49c-2.16,0-3.92-1.76-3.92-3.92,0-1.05.41-2.03,1.15-2.78.73-.74,1.71-1.15,2.77-1.15h6.85v1h-6.85c-.78,0-1.51.3-2.06.86-.56.56-.86,1.29-.86,2.07,0,1.61,1.31,2.92,2.92,2.92h125.49c.78,0,1.51-.3,2.06-.86.56-.55.86-1.28.86-2.06,0-1.62-1.31-2.93-2.92-2.93h-6.85v-1h6.85c2.16,0,3.92,1.76,3.92,3.93,0,1.05-.41,2.04-1.16,2.77-.73.74-1.71,1.15-2.76,1.15Z"/>
        <g>
          <g>
            <path class="cls-12" d="M275.95,374.23c0,2.77,20.32,5.02,45.37,5.02s45.37-2.25,45.37-5.02c0-.05-.01-.1-.02-.15v-13.56h-90.69v13.53c-.02.06-.03.12-.03.18Z"/>
            <ellipse class="cls-2" cx="321.32" cy="360.65" rx="45.37" ry="5.02"/>
          </g>
          <g>
            <path class="cls-12" d="M265.23,357.87c0,2.77,20.32,5.02,45.37,5.02s45.37-2.25,45.37-5.02c0-.05-.01-.1-.02-.15v-13.56h-90.69v13.53c-.02.06-.03.12-.03.18Z"/>
            <ellipse class="cls-2" cx="310.6" cy="344.28" rx="45.37" ry="5.02"/>
          </g>
          <g>
            <path class="cls-12" d="M275.95,341.51c0,2.77,20.32,5.02,45.37,5.02s45.37-2.25,45.37-5.02c0-.05-.01-.1-.02-.15v-13.56h-90.69v13.53c-.02.06-.03.12-.03.18Z"/>
            <ellipse class="cls-2" cx="321.32" cy="327.92" rx="45.37" ry="5.02"/>
          </g>
          <g>
            <path class="cls-5" d="M321.31,379.78c18.45,0,45.91-1.48,45.91-5.55h-1.07c0,1.56-15.4,4.48-44.84,4.48-1.07,0-2.13,0-3.18-.01v1.07c1.04,0,2.11.01,3.18.01Z"/>
            <path class="cls-5" d="M303.33,379.37l.05-1.07c-4.59-.22-8.81-.52-12.52-.9l-.11,1.07c3.73.38,7.96.68,12.58.9Z"/>
          </g>
          <g>
            <path class="cls-5" d="M339.22,362.21c17.05-1.55,17.05-3.7,17.05-4.41h-1.07c0,.52-2.89,2.14-16.07,3.34l.1,1.07Z"/>
            <path class="cls-5" d="M310.36,363.36c5.1,0,10.11-.09,14.89-.28l-.04-1.07c-8.53.33-17.97.37-26.76.1l-.03,1.07c3.89.12,7.91.18,11.95.18Z"/>
            <path class="cls-5" d="M287.15,362.65l.07-1.07c-4.84-.32-9.06-.73-12.54-1.22l-.15,1.06c3.51.5,7.76.91,12.62,1.23Z"/>
          </g>
          <g>
            <path class="cls-5" d="M351.83,332.19c15.12-1.54,15.12-3.49,15.12-4.22h-1.07s-.39,1.75-14.16,3.16l.11,1.07Z"/>
            <path class="cls-5" d="M321.04,333.52c5.22,0,10.32-.1,15.16-.29l-.04-1.07c-4.83.19-9.92.29-15.12.29-9.31,0-18.25-.31-25.86-.9l-.08,1.07c7.63.59,16.6.9,25.94.9Z"/>
          </g>
          <g>
            <path class="cls-12" d="M259.87,325.14c0,2.77,20.32,5.02,45.37,5.02s45.37-2.25,45.37-5.02c0-.05-.01-.1-.02-.15v-13.56h-90.69v13.53c-.02.06-.03.12-.03.18Z"/>
            <ellipse class="cls-2" cx="305.24" cy="311.56" rx="45.37" ry="5.02"/>
            <path class="cls-12" d="M268.28,311.56c0,1.86,16.55,3.37,36.95,3.37s36.95-1.51,36.95-3.37-16.55-3.37-36.95-3.37-36.95,1.51-36.95,3.37Z"/>
          </g>
        </g>
        <g>
          <rect class="cls-9" x="228.12" y="27.56" width="24.25" height="3"/>
          <rect class="cls-9" x="168.12" y="27.56" width="48.77" height="3"/>
          <rect class="cls-9" x="196.21" y="40.56" width="56.17" height="3"/>
          <rect class="cls-9" x="168.12" y="40.56" width="21.19" height="3"/>
          <rect class="cls-9" x="218.93" y="54.56" width="22.98" height="3"/>
          <rect class="cls-9" x="168.12" y="54.56" width="41.11" height="3"/>
        </g>
        <rect class="cls-8" x="177.11" y="181.65" width="30.41" height="1.5"/>
        <path class="cls-8" d="M269.79,183.15h-50.47v-1.5h50.47c1.93,0,3.5-1.51,3.57-3.44l2.64-69.32,1.5.06-2.64,69.32c-.1,2.74-2.33,4.88-5.07,4.88Z"/>
      </g>
      <g>
        <circle class="cls-11" cx="206.49" cy="138" r="28.55" transform="translate(-5.33 8.34) rotate(-2.28)"/>
        <polygon class="cls-3" points="205.42 152.56 192.33 139.09 193.76 137.7 204.86 149.12 219.15 119.52 220.95 120.38 205.42 152.56"/>
      </g>
    </g>
  </g>
</svg>