<?xml version="1.0" encoding="UTF-8"?>
<svg id="_圖層_2" data-name="圖層 2" xmlns="http://www.w3.org/2000/svg" viewBox="0 0 214.24 350.09">
  <defs>
    <style>
      .cls-1 {
        fill: #faf2be;
      }

      .cls-2 {
        fill: #fff;
      }

      .cls-3 {
        fill: #fac445;
      }

      .cls-4 {
        fill: #82392e;
      }

      .cls-5 {
        fill: #423c3a;
      }

      .cls-6 {
        fill: #af9a94;
      }

      .cls-7 {
        fill: #df6c2d;
      }

      .cls-8 {
        fill: #f2d1b1;
      }

      .cls-9 {
        fill: #39463d;
      }

      .cls-10 {
        fill: #fae677;
      }

      .cls-11 {
        fill: #fdfdfd;
      }
    </style>
  </defs>
  <g id="Layer_1" data-name="Layer 1">
    <g>
      <path class="cls-3" d="M79.69,91.37c.23-3.55-1.22-7.72-2.16-7.31-.95.41-.06,3.73-.72,4.73-.87,1.31-1.62,2.54-.97,5.64l3.86-3.06Z"/>
      <g>
        <polygon class="cls-3" points="111.69 339.17 114.52 316.29 97.75 316.29 97.01 339.17 111.69 339.17"/>
        <path class="cls-10" d="M97.33,329.28c6.34,1.66,15.75-1.36,15.75-1.36l.67-5.43-16.24,1.37-.18,5.42Z"/>
      </g>
      <g>
        <polygon class="cls-3" points="191.68 339.17 190.13 316.29 173.36 316.29 177 339.17 191.68 339.17"/>
        <path class="cls-10" d="M174.14,321.18l1.15,7.22c7.74.46,13.24-2.41,15.4-3.78l-.47-7.02-16.07,3.59Z"/>
      </g>
      <path class="cls-6" d="M76.01,324.83s11.2-140.67,41.45-209.05l28.12,1.41s-2.4,99.04-23.49,207.64c0,0-26.39,6.26-46.07,0Z"/>
      <path class="cls-6" d="M155.69,324.83s27.67,4.47,43.46-6.26c0,0-8.4-152.52-34.14-202.53h-30.26s.99,82.21,20.95,208.79Z"/>
      <path class="cls-5" d="M164.33,43.63c-.74-2.66-2.15-6.06-2.15-6.06.49,2.55.5,5.37.45,6.89-6.57,3.01-20.29,6.94-41.61,1.73.27-2.19.39-4.27.39-4.27-.38,1.39-.92,2.79-1.45,4-.76-.19-1.52-.39-2.3-.61.64-2.71.91-7.41.91-7.41-.74,2.83-2.22,5.71-2.84,6.86-1.3-.39-2.62-.81-3.97-1.27,0,0,4.25-6.48,7.03-23.35C121.1,6.27,128.21-.28,139.02,0c22.23.6,28.16,41.85,28.16,41.85,0,0-.95.75-2.86,1.77Z"/>
      <path class="cls-2" d="M87.48,92.56s8.91-40.1,44.33-42.18c54.52-3.19,71.28,32.27,71.28,32.27l-115.61,9.91Z"/>
      <path class="cls-3" d="M143.92,10.18c-6.02-3.44-16.59-3.59-19,4.56-2.23,7.52-1.87,30.18,8.19,29.75,10.52-.45,13.83-8.44,14.77-13.33.34-1.76,2.06-17.54-3.96-20.98Z"/>
      <path class="cls-3" d="M147.62,30.76s4.7,1.45,5.58-2.78c.79-3.81-3.73-5.3-5.19-3.63l-.39,6.41Z"/>
      <path class="cls-3" d="M82.54,140.86c-6.74-13.2-12.01-44.02-12.01-44.02-.78-1.21-4.05-6.46-4.26-10.46-.09-1.78.81-2.83,2.01-2.25.43-1.44,1.29-1.71,2.45-.86.65-1.26,1.44-1.21,2.22-.6,1.72-2.89,5.16,6.26,5.14,7.4-.01.77-.24,3.58-.36,4.41-.15,1.1,20.21,35.81,20.21,35.81l-15.41,10.58Z"/>
      <path class="cls-2" d="M193.64,321.03l.9-.06c-.1-1.52-10.35-153.09-36.36-202.33l-.8.42c25.93,49.08,36.16,200.45,36.26,201.97Z"/>
      <path class="cls-2" d="M171.58,91.61l9.54,54.57c-24.9,7.48-53,.76-75.98-14.49l9.52-53.82,17.71-26.97s8.63,9.85,18.15-.22l24.79,10.4-3.73,30.53Z"/>
      <path class="cls-2" d="M80.93,103.44l5.03-12.47s12.58-25.58,22.94-32.19l6.63,44.76-34.59-.1Z"/>
      <path class="cls-9" d="M139.74,202.21l.88-.08c-1.43-15.28-2.62-30.23-3.54-44.43l-.89.06c.92,14.2,2.11,29.16,3.54,44.45Z"/>
      <path class="cls-2" d="M115.37,325.14c.19-.9,18.85-90.44,24.16-135.56l-.9-.11c-5.3,45.08-23.96,134.58-24.15,135.48l.89.19Z"/>
      <rect class="cls-6" x="82.58" y="104.35" width="54.65" height=".88" transform="translate(-12.39 194.8) rotate(-79.99)"/>
      <path class="cls-5" d="M151.46,23.51s-1.68-.97-3.35.81c0,0-.44-3.56-1.64-5.8l-.75,3.97c-1.22.19-5.1.83-9.35.91-1.2.02-4.57,0-4.57,0l-.77-6.63-1.44,6.5c-.99-.08-1.76-.18-2.55-.29l-.56-3.9-1.09,3.67c-1.06-.18-1.8-.34-2.15-.42-.22-2.79-.31-10.3,4.66-14.65,5.7-4.99,17.76-2.25,20.56,3.73,2.79,5.98,3,12.11,3,12.11Z"/>
      <path class="cls-3" d="M140.2,55.27c-4.99,0-7.96-4.36-7.96-4.36l1.25-14.44,13.74-8.16,3.47,22.38s-4.3,4.58-10.49,4.58Z"/>
      <path class="cls-5" d="M133.57,45.3l-.04-.88c6.25-.27,10.25-5.05,12.51-9.01l.76.43c-2.37,4.15-6.58,9.17-13.23,9.45Z"/>
      <g>
        <path class="cls-5" d="M115.53,349.93l-42.39.16c-1.48,0-2.66-1.24-2.55-2.71,0-.02,0-.04,0-.05.03-.32.07-.66.11-.99.14-1.13.44-2.26.97-2.96,2-2.67,5.9-3.9,12.84-6.69,4.36-1.75,8.06-4.07,9.68-5.15.53-.35,1.21-.27,1.68.17,8.41,8.17,13.56,6.4,15.08,3.01,1.17-2.58,2.84-2.05,3.3-1.3,1.42,2.36,2.22,9.28,2.55,12.75.04.37.07.72.09.99.05.65.08,1.04.08,1.04.16.9-.53,1.74-1.44,1.74Z"/>
        <g>
          <path class="cls-2" d="M86.92,341.12c-3.02-1.45-2.58-4.56-2.57-4.59l.73.11c-.02.11-.35,2.61,2.17,3.82l-.32.66Z"/>
          <path class="cls-2" d="M83.21,342.38c-2.77-1.55-2.49-4.25-2.48-4.37l.73.08c-.01.09-.23,2.33,2.11,3.64l-.36.64Z"/>
          <path class="cls-2" d="M107.13,340.45c-2.84.01-5.41-1.27-5.45-1.29l.33-.66c.07.03,6.51,3.24,9.8-.89l.58.46c-1.45,1.82-3.41,2.37-5.26,2.38Z"/>
        </g>
        <g>
          <rect class="cls-2" x="87.02" y="346.69" width="24.7" height=".74" transform="translate(-1.28 .37) rotate(-.21)"/>
          <rect class="cls-2" x="78" y="346.75" width="5.84" height=".74" transform="translate(-1.28 .3) rotate(-.21)"/>
        </g>
      </g>
      <g>
        <path class="cls-5" d="M194.91,349.93l-42.39.16c-1.48,0-2.66-1.24-2.55-2.71,0-.02,0-.04,0-.05.03-.32.07-.66.11-.99.14-1.13.44-2.26.97-2.96,2-2.67,5.9-3.9,12.84-6.69,4.36-1.75,8.06-4.07,9.68-5.15.53-.35,1.21-.27,1.68.17,8.41,8.17,13.56,6.4,15.08,3.01,1.17-2.58,2.84-2.05,3.3-1.3,1.42,2.36,2.22,9.28,2.55,12.75.04.37.07.72.09.99.05.65.08,1.04.08,1.04.16.9-.53,1.74-1.44,1.74Z"/>
        <g>
          <path class="cls-2" d="M166.31,341.12c-3.02-1.45-2.58-4.56-2.57-4.59l.73.11c-.02.11-.35,2.61,2.17,3.82l-.32.66Z"/>
          <path class="cls-2" d="M162.59,342.38c-2.77-1.55-2.49-4.25-2.48-4.37l.73.08c-.01.09-.23,2.33,2.11,3.64l-.36.64Z"/>
          <path class="cls-2" d="M186.51,340.45c-2.84.01-5.41-1.27-5.45-1.29l.33-.66c.07.03,6.51,3.24,9.8-.89l.58.46c-1.45,1.82-3.41,2.37-5.26,2.38Z"/>
        </g>
        <g>
          <rect class="cls-2" x="166.4" y="346.69" width="24.7" height=".74" transform="translate(-1.28 .66) rotate(-.21)"/>
          <rect class="cls-2" x="157.39" y="346.75" width="5.84" height=".74" transform="translate(-1.28 .6) rotate(-.21)"/>
        </g>
      </g>
      <g>
        <path class="cls-7" d="M169.72,207.42l-141.59-22.36c-2.91-.46-4.92-3.22-4.46-6.14l14.39-91.13c.46-2.91,3.22-4.92,6.14-4.46l141.59,22.36c2.91.46,4.92,3.22,4.46,6.14l-14.39,91.13c-.46,2.91-3.22,4.92-6.14,4.46Z"/>
        <g>
          <rect class="cls-2" x="140.74" y="164.62" width="28.71" height="7.87" rx="1.45" ry="1.45" transform="translate(282.01 359.24) rotate(-171.03)"/>
          <rect class="cls-2" x="107.05" y="159.3" width="28.71" height="7.87" rx="1.45" ry="1.45" transform="translate(215.86 343.41) rotate(-171.03)"/>
          <rect class="cls-2" x="73.35" y="153.98" width="28.71" height="7.87" rx="1.45" ry="1.45" transform="translate(149.72 327.58) rotate(-171.03)"/>
          <rect class="cls-2" x="39.66" y="148.66" width="28.71" height="7.87" rx="1.45" ry="1.45" transform="translate(83.58 311.75) rotate(-171.03)"/>
        </g>
        <rect class="cls-2" x="37.21" y="164.55" width="37.49" height="7.87" rx="1.77" ry="1.77" transform="translate(84.94 343.62) rotate(-171.03)"/>
        <path class="cls-2" d="M163.81,137.14l-19.82-3.13c-2.23-.35-3.76-2.45-3.41-4.68l1.61-10.2c.35-2.23,2.45-3.76,4.68-3.41l19.82,3.13c2.23.35,3.76,2.45,3.41,4.68l-1.61,10.2c-.35,2.23-2.45,3.76-4.68,3.41ZM146.71,116.8c-1.63-.26-3.17.86-3.43,2.49l-1.61,10.2c-.26,1.63.86,3.17,2.49,3.43l19.82,3.13c1.63.26,3.17-.86,3.43-2.49l1.61-10.2c.26-1.63-.86-3.17-2.49-3.43l-19.82-3.13Z"/>
        <g>
          <rect class="cls-4" x="24.22" y="104.92" width="22.1" height="1" transform="translate(-74.36 123.82) rotate(-81.03)"/>
          <path class="cls-4" d="M108.33,198.23l.16-.99-80.28-12.67c-1.28-.2-2.4-.89-3.17-1.95-.77-1.05-1.08-2.34-.88-3.62l6.98-44.18-.99-.16-6.98,44.18c-.24,1.54.13,3.09,1.05,4.36.92,1.27,2.28,2.1,3.82,2.35l80.28,12.67Z"/>
          <rect class="cls-4" x="136.58" y="187.21" width="1" height="30.1" transform="translate(-84.1 306.09) rotate(-81.02)"/>
        </g>
      </g>
      <g>
        <path class="cls-3" d="M67.38,84.04c-.62.19-.93.88-.66,1.47.5,1.06,1.31,2.16,1.89,2.2,1.01.07.5-1.67.11-2.96-.17-.57-.77-.89-1.34-.71h0Z"/>
        <path class="cls-3" d="M69.11,84.02c-.42.28-.59.81-.41,1.28.45,1.18,1.4,2.87,2.36,2.72.61-.1.21-1.93-.19-3.43-.19-.72-1.14-1-1.76-.57h0Z"/>
        <path class="cls-3" d="M71.63,83.4c-.58.12-.95.68-.84,1.26.25,1.24.88,2.88,2.17,3.35,1.11.4.48-2.23.08-3.84-.14-.57-.7-.92-1.27-.8l-.15.03Z"/>
        <path class="cls-3" d="M73.69,82.01c-1.05.18-1.2,1.23-.93,1.92.5,1.26,1.36,2.7,2.15,2.89.85.21.38-1.91.1-3.52-.12-.73-.68-1.41-1.33-1.29Z"/>
      </g>
      <path class="cls-2" d="M181.55,139.13s16.57-24.26-9.08-41.56l-14.69-41.31v-.28c17.2-.09,35.69,10.44,45.7,25.19,16.74,24.66,15.06,54.16-12.97,69.36l-8.96-11.41Z"/>
      <polygon class="cls-6" points="173.15 102.75 174.04 102.57 171.54 89.86 170.65 90.04 173.15 102.75"/>
      <path class="cls-6" d="M184.39,150.94c12.08-6.55,19.96-16.17,22.79-27.81,3.23-13.28-.2-28.27-9.66-42.21l-.75.51c9.32,13.73,12.7,28.46,9.53,41.49-2.77,11.38-10.5,20.8-22.34,27.23l.43.8Z"/>
      <path class="cls-3" d="M183.12,141.13c-.84.67-3.46,2.93-4.52,3.11-.98.17-6.42.39-6.26,1.54.16,1.2,3.87.27,3.83,1.24-.02.6-7.26,2.55-6.53,3.82.48.83,4.7-.95,4.78-.42.08.48-5.58,1.59-4.93,2.86.68,1.33,6.12-2.02,6.4-1.39.14.31-6.47,2.69-5.92,3.71.74,1.37,5.82-2,6.21-1.4.19.29-1.81,1.16-2.94,1.83-.63.37-.43.93.07.91,5.11-.23,11.52-6.44,12.33-6.73,1.22-.43,2.4-.89,3.55-1.36l-6.06-7.7Z"/>
      <path class="cls-6" d="M182.95,108.9l.78-.46c-2.43-4.18-6.13-7.96-11.01-11.25l-.51.75c4.76,3.21,8.37,6.89,10.73,10.95Z"/>
      <g>
        <path class="cls-1" d="M.96,88.14c3.32,16.66,19.51,27.47,36.17,24.15,16.66-3.32,27.47-19.51,24.15-36.17-3.32-16.66-19.51-27.47-36.17-24.15C8.45,55.29-2.36,71.48.96,88.14ZM6.72,86.3c-2.25-13.15,6.39-25.83,19.56-28.45.23-.05.45-.09.68-.13,6.27-1.07,12.6.27,17.9,3.82,5.5,3.67,9.24,9.27,10.53,15.75,2.67,13.39-6.05,26.45-19.43,29.12-6.49,1.29-13.08-.02-18.58-3.69-5.5-3.67-9.24-9.26-10.54-15.75-.04-.22-.08-.44-.12-.67Z"/>
        <path class="cls-8" d="M6.72,86.3c.04.22.08.44.12.67,1.29,6.48,5.03,12.08,10.54,15.75,5.5,3.67,12.09,4.99,18.58,3.69,13.38-2.67,22.11-15.73,19.44-29.12-1.29-6.48-5.03-12.08-10.53-15.75-5.3-3.54-11.64-4.89-17.9-3.82-.23.04-.45.08-.68.13-13.17,2.62-21.81,15.3-19.56,28.45Z"/>
        <path class="cls-1" d="M36.69,100.54l-1.51-4.4c-2.54.83-5.43.94-7.33.38l.04-3.28c1.93.51,4.48.56,6.92-.28,3.1-1.07,4.57-3.57,3.72-6.06-.82-2.4-3.04-3.3-6.71-3.5-5.05-.21-8.49-1.28-9.79-5.07-1.24-3.62.38-7.25,4.17-9.29l-1.51-4.4,2.7-.93,1.45,4.23c2.65-.81,4.67-.73,6.19-.42l-.1,3.25c-1.1-.21-3.21-.55-6,.41-3.36,1.15-3.93,3.6-3.33,5.34.78,2.27,2.78,2.85,7.12,3.11,5.12.29,8.17,1.78,9.5,5.66,1.18,3.45-.1,7.5-4.34,9.78l1.56,4.54-2.75.95Z"/>
        <path class="cls-4" d="M6.68,80.03c.02-.21.04-.41.06-.62.79-7.02,4.56-13.33,10.36-17.36l-.38-.55c-5.95,4.14-9.83,10.62-10.64,17.8-.03.26-.05.47-.07.68l.67.06Z"/>
        <path class="cls-4" d="M17.1,62.04c4.66-3.24,10.33-4.76,15.98-4.28l.06-.67c-5.8-.5-11.64,1.06-16.42,4.39l.38.55Z"/>
        <path class="cls-4" d="M11.83,98.27l.51-.43c-2.09-2.48-3.65-5.29-4.62-8.34l-.64.2c1,3.14,2.59,6.02,4.75,8.57Z"/>
        <path class="cls-4" d="M7.53,62.96c1.99-2.45,4.34-4.57,6.97-6.29l-.39-.6c-2.7,1.76-5.1,3.93-7.14,6.44l.56.45Z"/>
        <path class="cls-4" d="M18.37,110.51l.3-.66c-8.95-4.03-15.44-12.17-17.35-21.79-1.19-5.97-.58-12.09,1.77-17.68l-.66-.28C.01,75.84-.61,82.1.61,88.21c1.96,9.84,8.6,18.18,17.76,22.3Z"/>
      </g>
      <g>
        <path class="cls-11" d="M51.06,65.35c-2.81,1.43-4.74,3.61-6.06,6.36h0c-1.32-2.74-3.26-4.94-6.07-6.37h0c2.81-1.43,4.75-3.61,6.07-6.36h0c1.32,2.74,3.25,4.94,6.06,6.37Z"/>
        <path class="cls-11" d="M26.45,104.48c-1.63.83-2.75,2.1-3.52,3.69h0c-.77-1.59-1.89-2.87-3.52-3.7h0c1.63-.83,2.76-2.1,3.52-3.69h0c.77,1.59,1.89,2.87,3.52,3.7Z"/>
      </g>
    </g>
  </g>
</svg>