<svg width="404" height="593" viewBox="0 0 404 593" fill="none" xmlns="http://www.w3.org/2000/svg">
<g clip-path="url(#clip0_447_2114)">
<path d="M7.3413 103.038C13.6839 91.2345 26.4625 71.1837 49.56 53.9091C77.5078 33.0106 105.648 27.3286 119.374 25.4868L317.396 312.956C338.769 343.988 331.021 386.503 300.086 407.921C269.149 429.333 226.743 421.539 205.363 390.507L7.3413 103.038Z" fill="#FFF5EE"/>
<path d="M203.44 366.783L40.2925 129.943C45.8045 120.064 57.7758 101.692 79.9215 86.6654C100.971 72.3918 121.293 67.8641 132.349 66.2188C186.732 145.163 241.115 224.114 295.492 303.059C297.865 306.502 279.185 323.571 253.763 341.167C228.346 358.763 205.803 370.228 203.429 366.784L203.44 366.783Z" fill="#F2B973"/>
<path d="M203.44 366.783C201.066 363.34 219.76 346.287 245.177 328.691C270.599 311.095 293.123 299.615 295.497 303.059C297.871 306.502 279.19 323.571 253.768 341.167C228.352 358.762 205.808 370.227 203.435 366.784L203.44 366.783Z" fill="#EF8C6A"/>
<path d="M271.925 416.496C272.821 413.094 276.201 401.981 287.166 393.781C299.637 384.466 313.094 385.506 316.227 385.827C336.856 415.775 357.485 445.724 378.114 475.672L333.812 506.336L271.925 416.49L271.925 416.496Z" fill="#FFF5EE"/>
<path d="M339.327 525.376C335.376 519.641 344.618 506.37 359.977 495.741C375.33 485.112 390.983 481.145 394.939 486.885C398.889 492.621 389.648 505.892 374.289 516.521C358.936 527.15 343.283 531.117 339.327 525.376Z" fill="#482437"/>
<path d="M394.21 554.985L367.062 515.575C365.64 513.508 366.155 510.672 368.216 509.247L369.714 508.212C371.775 506.788 374.603 507.306 376.025 509.373L403.173 548.783C403.616 549.427 401.965 551.352 399.491 553.06C397.019 554.773 394.653 555.628 394.21 554.985Z" fill="#EF8C6A"/>
<path d="M394.216 554.984C393.774 554.34 395.409 552.428 397.882 550.715C400.354 549.002 402.731 548.139 403.179 548.782C403.622 549.426 401.971 551.351 399.498 553.064C397.026 554.777 394.66 555.633 394.217 554.989L394.216 554.984Z" fill="#482437"/>
<path d="M76.4513 203.365C80.4724 194.931 90.7781 176.238 112.378 161.909C132.031 148.873 151.151 146.012 160.422 145.237C193.17 192.779 225.923 240.32 258.672 287.867C245.733 292.433 228.483 300.062 210.391 312.996C194.548 324.322 182.878 336.275 174.701 345.996C141.953 298.454 109.2 250.912 76.4513 203.365Z" fill="#ABA15B"/>
<path d="M94.8215 189.407C101.095 181.365 108.545 174.453 116.97 168.869C131.323 159.349 145.676 155.522 156.4 154.071L245.817 283.875C231.593 289.763 218.092 297.254 205.565 306.209C194.718 313.962 184.649 322.789 175.53 332.53L86.1135 202.726C88.6239 198.079 91.5484 193.616 94.8271 189.407L94.8215 189.407Z" stroke="#482437" stroke-width="3.72" stroke-linecap="round" stroke-linejoin="round"/>
<path d="M204.072 247.56C207.262 252.929 207.804 260.105 204.41 265.347C200.806 270.922 193.828 273.2 187.274 274.196C177.829 275.628 167.211 274.857 160.191 268.354C150.312 259.195 152.013 239.237 165.073 233.643C177.109 228.49 197.66 236.791 204.066 247.561L204.072 247.56Z" fill="#482437"/>
<path d="M202.1 250.136C201.87 253.114 199.121 255.669 196.143 255.675C198.156 256.036 199.958 257.436 200.812 259.296C201.667 261.161 201.556 263.439 200.522 265.206" stroke="white" stroke-width="2.39" stroke-linecap="round" stroke-linejoin="round"/>
<path d="M204.496 257.307C202.514 256.615 200.438 256.193 198.348 256.043C198.378 255.961 198.408 255.879 198.438 255.796" stroke="white" stroke-width="2.39" stroke-linecap="round" stroke-linejoin="round"/>
<path d="M142.682 238.464C137.937 240.408 132.048 239.96 128.211 236.551C124.131 232.926 123.132 226.952 123.124 221.486C123.115 213.603 125.037 205.043 131.17 200.121C139.81 193.189 155.789 197.035 158.73 208.378C161.441 218.827 152.2 234.567 142.676 238.464L142.682 238.464Z" fill="#482437"/>
<path d="M140.837 236.539C138.449 235.989 136.708 233.427 137.072 230.997C136.531 232.596 135.18 233.891 133.564 234.359C131.947 234.827 130.113 234.456 128.802 233.391" stroke="white" stroke-width="1.96" stroke-linecap="round" stroke-linejoin="round"/>
<path d="M134.73 237.61C135.531 236.078 136.129 234.439 136.509 232.751C136.575 232.788 136.635 232.821 136.701 232.859" stroke="white" stroke-width="1.96" stroke-linecap="round" stroke-linejoin="round"/>
<path d="M364.484 492.617L355.521 498.819L311.494 434.909C311.486 434.74 311.46 431.633 314.267 429.595C316.123 428.249 318.502 427.911 320.456 428.707L364.484 492.617Z" fill="#EF8C6A"/>
<path d="M331.246 513.644C327.295 507.909 336.537 494.637 351.896 484.008C367.249 473.38 382.902 469.412 386.858 475.153C390.808 480.888 381.567 494.16 366.208 504.789C350.855 515.417 335.202 519.384 331.246 513.644Z" fill="#482437"/>
<path d="M169.209 300.664C166.413 298.474 165.922 294.426 168.104 291.624C170.287 288.822 174.324 288.332 177.119 290.522C179.915 292.712 180.406 296.76 178.224 299.562C176.041 302.364 172.005 302.854 169.209 300.664Z" stroke="#482437" stroke-width="3.72" stroke-linecap="round" stroke-linejoin="round"/>
<path d="M149.049 170.986C147.318 169.629 147.01 167.117 148.362 165.382C149.713 163.648 152.219 163.34 153.95 164.697C155.681 166.053 155.989 168.566 154.637 170.3C153.285 172.035 150.779 172.342 149.049 170.986Z" stroke="#482437" stroke-width="3.72" stroke-linecap="round" stroke-linejoin="round"/>
<path d="M159.074 188.807C156.475 186.77 156.016 183.006 158.046 180.401C160.076 177.797 163.83 177.338 166.429 179.376C169.028 181.413 169.487 185.177 167.457 187.782C165.427 190.386 161.673 190.845 159.074 188.807Z" stroke="#482437" stroke-width="3.72" stroke-linecap="round" stroke-linejoin="round"/>
<path d="M151.39 282.906C149.887 281.727 149.622 279.553 150.798 278.053C151.973 276.547 154.141 276.282 155.638 277.462C157.141 278.641 157.406 280.815 156.23 282.315C155.055 283.822 152.887 284.086 151.39 282.906Z" stroke="#482437" stroke-width="3.72" stroke-linecap="round" stroke-linejoin="round"/>
<path d="M273.973 399.745C263.675 405.064 250.969 403.958 240.35 399.299C229.732 394.646 220.833 386.82 212.492 378.751" stroke="#482437" stroke-width="4" stroke-linecap="round" stroke-linejoin="round"/>
<path d="M114.971 40.9849C114.971 40.9849 61.6232 43.2646 23.4619 104.327" stroke="#482437" stroke-width="4" stroke-linecap="round" stroke-linejoin="round"/>
<path d="M295.496 303.059C295.496 303.059 258.22 305.68 203.439 366.783" stroke="#482437" stroke-width="4" stroke-linecap="round" stroke-linejoin="round"/>
<path d="M384.285 484.631C384.285 484.631 362.228 486.608 340.539 516.101" stroke="white" stroke-width="3.18" stroke-linecap="round" stroke-linejoin="round"/>
</g>
<defs>
<clipPath id="clip0_447_2114">
<rect width="344" height="557" fill="white" transform="matrix(0.99383 -0.110916 -0.110916 -0.99383 61.9512 592.359)"/>
</clipPath>
</defs>
</svg>
