<svg width="415" height="391" viewBox="0 0 415 391" fill="none" xmlns="http://www.w3.org/2000/svg">
<g clip-path="url(#clip0_447_2147)">
<path d="M232.631 314.325L376.108 192.246C391.52 179.127 393.02 155.834 379.416 140.843L271.747 22.2284C257.695 6.74422 233.432 6.56483 219.15 21.8415L90.1289 159.848C77.3869 173.476 77.2301 194.617 89.7706 208.431L182.984 311.124C195.961 325.419 217.924 326.838 232.626 314.331L232.631 314.325Z" fill="#E5A055"/>
<path d="M59.1077 277.274C60.4289 277.184 61.7389 277.151 63.0546 277.179C74.1954 277.431 84.9724 273.176 93.2133 265.669L125.455 236.327L162.298 276.915L122.364 313.265C116.206 318.871 111.699 326.087 109.516 334.137C106.386 345.68 101.656 356.64 92.3847 363.777C84.8269 369.59 74.7777 372.029 65.4003 370.325C50.934 367.695 43.2194 355.676 33.9932 345.63C24.8118 335.628 19.9411 321.916 22.9979 308.382C26.7432 291.766 42.1501 278.496 59.1133 277.274H59.1077ZM45.106 323.721C50.4021 329.557 59.4324 329.988 65.2604 324.685C71.0883 319.382 71.5194 310.339 66.2233 304.503C60.9272 298.667 51.8969 298.235 46.069 303.539C40.241 308.842 39.8099 317.885 45.106 323.721Z" fill="#E5A055"/>
<path d="M262.219 11.728L369.888 130.348C383.492 145.339 381.992 168.633 366.579 181.751L223.103 303.83C208.401 316.343 186.439 314.925 173.462 300.623L147.099 271.578L112.836 302.765C106.678 308.371 102.171 315.586 99.9879 323.637C96.8584 335.18 92.1277 346.14 82.8567 353.276C75.2988 359.09 65.2497 361.529 55.8723 359.824C41.406 357.195 33.6913 345.175 24.4651 335.129C15.2837 325.128 10.4131 311.415 13.4699 297.882C17.2152 281.265 32.622 267.996 49.5853 266.774C50.9065 266.678 52.2166 266.65 53.5322 266.678C64.6731 266.931 75.45 262.675 83.6909 255.169L110.261 230.99L80.2534 197.93C67.713 184.117 67.8698 162.976 80.6118 149.347L209.622 11.3412C223.903 -3.93554 248.161 -3.75614 262.219 11.728ZM43.4102 321.428C43.8861 322.229 44.4515 322.998 45.1065 323.721C50.4026 329.557 59.4329 329.988 65.2609 324.685C71.0888 319.382 71.5199 310.339 66.2238 304.503C65.5688 303.785 64.8578 303.146 64.1076 302.591C58.7555 298.644 51.1808 298.886 46.0695 303.539C40.9581 308.192 40.0008 315.715 43.4102 321.428Z" fill="#F2B973"/>
<path d="M45.107 323.721C50.4031 329.557 59.4333 329.988 65.2613 324.685C71.0893 319.382 71.5204 310.339 66.2242 304.503C65.5692 303.785 64.8582 303.146 64.108 302.591C67.5231 308.304 66.5601 315.833 61.4488 320.48C56.3374 325.133 48.7628 325.375 43.4107 321.428C43.8865 322.229 44.452 322.998 45.107 323.721Z" fill="#E5A055"/>
<mask id="mask0_447_2147" style="mask-type:luminance" maskUnits="userSpaceOnUse" x="12" y="-1" width="368" height="362">
<path d="M262.219 11.728L369.888 130.348C383.492 145.339 381.992 168.633 366.579 181.751L223.103 303.83C208.401 316.343 186.439 314.925 173.462 300.623L147.099 271.578L112.836 302.765C106.678 308.371 102.171 315.586 99.9879 323.637C96.8584 335.18 92.1277 346.14 82.8567 353.276C75.2988 359.09 65.2497 361.529 55.8723 359.824C41.406 357.195 33.6913 345.175 24.4651 335.129C15.2837 325.128 10.4131 311.415 13.4699 297.882C17.2152 281.265 32.622 267.996 49.5853 266.774C50.9065 266.678 52.2166 266.65 53.5322 266.678C64.6731 266.931 75.45 262.675 83.6909 255.169L110.261 230.99L80.2534 197.93C67.713 184.117 67.8698 162.976 80.6118 149.347L209.622 11.3412C223.903 -3.93554 248.161 -3.75614 262.219 11.728ZM43.4102 321.428C43.8861 322.229 44.4515 322.998 45.1065 323.721C50.4026 329.557 59.4329 329.988 65.2609 324.685C71.0888 319.382 71.5199 310.339 66.2238 304.503C65.5688 303.785 64.8578 303.146 64.1076 302.591C58.7555 298.644 51.1808 298.886 46.0695 303.539C40.9581 308.192 40.0008 315.715 43.4102 321.428Z" fill="white"/>
</mask>
<g mask="url(#mask0_447_2147)">
<path d="M414.289 145.782C395.086 126.743 359.083 129.485 342.976 151.214C337.624 158.435 334.433 167.018 329.714 174.67C325 182.323 318.002 189.426 309.106 190.648C303.373 191.438 297.568 189.684 291.79 190.02C280.599 190.676 271.384 198.934 264.251 207.595C257.119 216.257 250.781 226.023 241.208 231.853C234.154 236.147 224.021 237.504 218.339 231.511C212.779 225.641 214.386 215.993 218.064 208.789C224.234 196.708 235.291 187.228 248.161 182.979C259.784 179.144 272.75 179.391 283.504 173.543C292.299 168.761 298.542 160.47 304.51 152.425C317.834 134.463 331.152 116.501 344.477 98.539C347.282 94.7549 350.159 90.8306 351.228 86.2391C352.298 81.6477 351.083 76.1817 347.125 73.6309C341.806 70.2056 334.758 73.4515 329.758 77.331C320.818 84.2546 313.506 93.2804 308.585 103.467C305.674 109.488 303.575 115.929 300.02 121.586C296.459 127.248 291.017 132.226 284.394 133.084C277.771 133.942 270.303 129.266 269.962 122.584C269.637 116.187 275.213 111.315 279.3 106.388C283.392 101.465 285.833 93.0618 280.576 89.4066C277.055 86.9623 272.195 88.3751 268.417 90.4045C251.806 99.3126 241.88 119.282 244.797 137.928C245.53 142.609 246.975 147.436 245.625 151.971C243.24 159.993 233.522 163.11 225.169 163.48C216.816 163.85 207.774 162.903 200.748 167.438C191.309 173.527 189.792 186.454 188.813 197.655C187.833 208.857 185.129 221.93 174.9 226.578C164.896 231.13 152.938 224.559 146.584 215.584C138.746 204.517 136.574 189.639 140.918 176.789C145.262 163.94 156.011 153.44 168.949 149.415C176.031 147.211 184.283 146.488 189.087 140.826C197.305 131.139 188.98 115.884 192.709 103.736C196.958 89.8831 213.977 85.8019 227.75 81.3562C243.033 76.4228 257.292 68.3443 269.396 57.7768C277.223 50.9429 284.574 42.0235 284.518 31.6242C284.45 19.6999 273.287 9.34537 261.379 9.09309C249.477 8.84082 238.331 17.7938 234.837 29.1911C232.519 36.7482 232.682 45.959 226.507 50.8812C221.082 55.2092 213.328 54.0823 206.453 54.9625C194.954 56.4369 184.95 64.1285 178.287 73.6309C171.625 83.1277 167.88 94.34 164.717 105.507C162.595 113.008 157.971 122.449 150.312 121.031C146.852 120.392 144.255 117.505 142.413 114.505C134.323 101.353 136.674 82.6905 147.776 71.9603C134.01 72.0164 120.417 78.6372 111.879 89.4458C103.341 100.254 100.033 115.027 103.151 128.453C105.877 140.193 113.183 150.895 113.402 162.942C113.603 173.936 107.647 184.38 99.4505 191.702C91.26 199.023 81.0093 203.609 70.6746 207.332C62.3106 210.342 51.8023 216.032 53.7618 224.716C55.5589 232.666 66.0839 234.135 74.2184 233.894C84.5643 233.585 95.8507 233.596 103.996 239.993C112.142 246.395 113.323 261.728 103.789 265.776C96.4441 268.893 87.9569 263.673 80.1471 265.305C69.1238 267.609 63.0384 282.594 51.7799 282.258C40.9582 281.933 35.231 267.502 24.5324 265.815C18.4189 264.851 12.3166 268.579 8.75602 273.647C5.19542 278.715 3.70065 284.915 2.469 290.986C0.94623 298.504 -0.274219 306.387 1.84758 313.759C3.96939 321.131 10.3572 327.808 18.0214 327.813C23.088 327.813 28.0538 324.999 33.0196 326.019C39.6313 327.381 43.136 335.168 42.4977 341.896C41.8595 348.623 38.2877 354.65 35.4941 360.8C32.7005 366.95 30.6347 374.081 33.098 380.376C36.9217 390.159 50.7778 392.94 59.8137 387.603C68.8495 382.271 73.3339 371.418 74.2744 360.957C75.1477 351.224 73.569 341.004 77.2695 331.962C80.9701 322.919 93.421 316.5 100.548 323.177C110.927 332.898 95.6212 352.39 103.873 363.984C108.246 370.123 117.97 370.521 124.078 366.114C130.186 361.708 133.007 353.859 133.327 346.325C133.802 335.157 129.626 324.405 126.323 313.731C123.02 303.056 120.568 291.368 124.403 280.873C128.238 270.378 140.627 262.373 150.788 266.992C160.641 271.477 165.434 285.728 176.261 285.879C191.584 286.092 195.575 258.078 210.87 258.992C221.58 259.631 225.034 274.14 222.756 284.64C220.477 295.141 215.663 306.566 220.791 316.001C226.456 326.423 242.233 327.572 251.873 320.671C261.508 313.77 265.875 301.56 267.465 289.804C269.055 278.047 268.433 266.028 270.751 254.395C273.069 242.762 279.126 230.956 289.881 225.972C304.476 219.211 324.132 230.037 326.243 246.003C327.39 254.67 324.725 265.226 331.348 270.922C335.956 274.886 343.239 274.101 348.312 270.76C353.384 267.424 356.765 262.109 359.984 256.957" stroke="#E5A055" stroke-width="2.53" stroke-linecap="round" stroke-linejoin="round"/>
</g>
<path d="M222.593 280.363L342.904 177.995C355.83 166.996 357.084 147.464 345.68 134.895L255.395 35.4308C243.61 22.447 223.265 22.2956 211.29 35.1057L103.101 150.828C92.4189 162.253 92.2845 179.985 102.804 191.567L180.969 277.678C191.852 289.669 210.266 290.858 222.599 280.363H222.593Z" stroke="#482437" stroke-width="4" stroke-linecap="round" stroke-linejoin="round"/>
</g>
<defs>
<clipPath id="clip0_447_2147">
<rect width="415" height="391" fill="white" transform="matrix(-1 0 0 1 415 0)"/>
</clipPath>
</defs>
</svg>
