<svg width="242" height="264" viewBox="0 0 242 264" fill="none" xmlns="http://www.w3.org/2000/svg">
<g clip-path="url(#clip0_447_2088)">
<path d="M111.747 36.968L177.319 107.995L180.584 120.435L198.362 138.63L159.484 188.604L135.895 169.878L122.287 168.727L42.4471 119.292L26.2304 83.5787C26.2304 83.5787 33.5553 46.9252 74.8759 25.8908L111.747 36.968Z" fill="#FFF5EE"/>
<path d="M29.0324 89.7606C29.0324 89.7606 74.004 101.445 118.291 146.635C118.291 146.635 124.163 157.744 122.287 168.727" stroke="#482437" stroke-width="4" stroke-linecap="round" stroke-linejoin="round"/>
<path d="M74.8756 25.8908C74.8756 25.8908 111.451 77.3943 151.234 106.105C151.234 106.105 163.578 110.236 177.319 107.995" stroke="#482437" stroke-width="4" stroke-linecap="round" stroke-linejoin="round"/>
<path d="M151.234 106.105C151.234 106.105 146.565 133.948 118.291 146.635" stroke="#482437" stroke-width="4" stroke-linecap="round" stroke-linejoin="round"/>
<path d="M70.6172 38.906C70.6172 38.906 47.5708 44.1895 37.6084 79.8836" stroke="#482437" stroke-width="4" stroke-linecap="round" stroke-linejoin="round"/>
<path d="M156.699 190.133C161.479 194.027 175.16 185.237 187.255 170.5C199.351 155.763 205.282 140.66 200.502 136.766C195.722 132.872 182.041 141.662 169.945 156.399C157.85 171.136 151.919 186.239 156.699 190.133Z" fill="#482437"/>
<path d="M213.952 147.729C209.171 143.835 195.487 152.624 183.394 167.362C171.296 182.101 165.368 197.203 170.149 201.097C174.93 204.991 188.614 196.202 200.706 181.464C212.805 166.726 218.732 151.623 213.952 147.729Z" fill="#482437"/>
<path d="M206.958 142.029C202.178 138.135 188.494 146.925 176.401 161.662C164.303 176.401 158.375 191.503 163.156 195.397C167.936 199.292 181.621 190.502 193.713 175.764C205.811 161.026 211.739 145.924 206.958 142.029Z" fill="#482437"/>
<path d="M135.895 169.878C135.895 169.878 146.826 133.629 180.584 120.435" stroke="#482437" stroke-width="4" stroke-linecap="round" stroke-linejoin="round"/>
<path d="M169.378 195.721C169.378 195.721 172.595 173.254 208.588 147.156" stroke="white" stroke-width="2.12" stroke-linecap="round" stroke-linejoin="round"/>
<path d="M161.302 189.142C161.302 189.142 164.519 166.675 200.512 140.577" stroke="white" stroke-width="2.12" stroke-linecap="round" stroke-linejoin="round"/>
<path d="M189.602 183.751C189.063 183.314 187.182 184.716 185.398 186.885C183.615 189.053 182.611 191.174 183.15 191.611C183.689 192.048 185.57 190.646 187.353 188.478C189.137 186.309 190.14 184.189 189.602 183.751Z" fill="#FFF5EE"/>
<path d="M200.638 175.667C200.099 175.229 198.218 176.631 196.435 178.8C194.651 180.968 193.648 183.089 194.186 183.526C194.725 183.964 196.606 182.561 198.39 180.393C200.173 178.225 201.177 176.11 200.638 175.667Z" fill="#FFF5EE"/>
<path d="M188.643 175.654C188.104 175.216 186.223 176.618 184.439 178.787C182.656 180.955 181.652 183.076 182.191 183.513C182.73 183.951 184.611 182.549 186.394 180.38C188.178 178.212 189.182 176.097 188.643 175.654Z" fill="#FFF5EE"/>
<path d="M196.664 165.876C196.126 165.439 194.245 166.841 192.461 169.009C190.677 171.178 189.674 173.298 190.213 173.736C190.751 174.173 192.632 172.771 194.416 170.603C196.2 168.434 197.203 166.314 196.664 165.876Z" fill="#FFF5EE"/>
<path d="M206.922 162.653C206.383 162.215 204.503 163.617 202.719 165.786C200.935 167.954 199.932 170.075 200.47 170.512C201.009 170.95 202.89 169.548 204.674 167.379C206.458 165.211 207.461 163.09 206.922 162.653Z" fill="#FFF5EE"/>
<path d="M197.035 172.737C196.497 172.299 194.616 173.701 192.832 175.87C191.048 178.038 190.044 180.153 190.584 180.596C191.123 181.039 193.003 179.632 194.787 177.463C196.571 175.295 197.574 173.174 197.035 172.737Z" fill="#FFF5EE"/>
<path d="M188.794 214.32C188.91 214.204 189.035 214.071 189.05 213.906C189.065 213.746 188.973 213.594 188.878 213.459C187.953 212.109 186.841 210.894 185.575 209.862C185.456 209.763 185.319 209.661 185.166 209.657C184.99 209.655 184.84 209.774 184.707 209.892C183.574 210.878 181.445 212.09 181.578 213.827C181.707 215.48 184.13 216.961 185.37 217.636C186.603 216.683 187.68 215.422 188.793 214.314L188.794 214.32Z" fill="#F2B973"/>
<path d="M202.75 213.648C202.776 213.487 202.794 213.305 202.709 213.168C202.625 213.032 202.459 212.967 202.306 212.912C200.76 212.38 199.133 212.067 197.5 211.991C197.346 211.981 197.177 211.985 197.052 212.073C196.905 212.175 196.86 212.366 196.824 212.534C196.501 214.004 195.517 216.235 196.669 217.552C197.763 218.802 200.596 218.549 201.993 218.355C202.409 216.862 202.522 215.203 202.75 213.654L202.75 213.648Z" fill="#F2B973"/>
<path d="M187.881 224.089C187.756 223.986 187.612 223.873 187.443 223.877C187.279 223.879 187.139 223.986 187.016 224.091C185.761 225.142 184.657 226.367 183.749 227.727C183.663 227.856 183.573 228.002 183.585 228.152C183.6 228.325 183.736 228.467 183.869 228.586C184.97 229.611 186.384 231.601 188.106 231.294C189.746 231.003 190.986 228.448 191.534 227.154C190.461 226.031 189.097 225.083 187.876 224.095L187.881 224.089Z" fill="#F2B973"/>
<path d="M207.422 228.028C207.471 227.87 207.524 227.7 207.461 227.544C207.397 227.394 207.245 227.305 207.106 227.226C205.662 226.456 204.112 225.886 202.511 225.553C202.36 225.52 202.193 225.495 202.054 225.562C201.893 225.637 201.819 225.821 201.753 225.981C201.201 227.377 199.872 229.429 200.796 230.909C201.677 232.32 204.512 232.517 205.924 232.546C206.577 231.138 206.955 229.521 207.428 228.027L207.422 228.028Z" fill="#F2B973"/>
</g>
<defs>
<clipPath id="clip0_447_2088">
<rect width="238.956" height="214.467" fill="white" transform="translate(213.338 0.669861) rotate(83.2026)"/>
</clipPath>
</defs>
</svg>
