<svg width="321" height="364" viewBox="0 0 321 364" fill="none" xmlns="http://www.w3.org/2000/svg">
<g clip-path="url(#clip0_447_2159)">
<path d="M276.812 261.149C273.452 263.778 269.509 265.533 265.23 266.032C257.636 266.89 249.028 264.193 242.918 268.728C234.243 275.147 238.717 288.965 235.368 299.207C232.417 308.194 222.224 314.13 212.966 312.247C203.714 310.341 196.652 300.889 197.453 291.46C198.052 284.626 202.14 278.679 205.439 272.636C208.715 266.609 211.325 259.366 208.805 252.976C207.259 249.097 203.647 246.624 199.486 246.501C193.88 246.355 190.133 245.963 186.84 242.42C186.151 241.697 185.49 240.822 184.835 239.796C181.234 234.14 179.481 226.987 181.032 220.4C183.485 209.99 192.205 201.856 202.14 197.937C212.059 194.013 223.081 193.8 233.694 194.86C246.457 196.155 259.344 199.384 269.823 206.761C280.307 214.138 288.058 226.208 287.845 239.023C287.689 247.532 283.393 255.992 276.807 261.149H276.812Z" fill="#EAC29D"/>
<path d="M276.812 261.149C271.189 259.064 268.4 251.944 266.619 245.834C264.603 239.012 260.935 230.973 253.856 230.524C245.696 230.042 239.076 240.57 231.235 238.21C226.492 236.758 224.436 231.365 221.345 227.492C215.33 219.957 203.389 218.023 195.313 223.282C190.732 226.281 187.741 231.371 186.862 236.741C186.56 238.563 186.717 240.503 186.84 242.414C186.151 241.691 185.49 240.817 184.835 239.791C181.234 234.134 179.481 226.981 181.032 220.394C183.485 209.984 192.205 201.85 202.14 197.932C212.059 194.008 223.081 193.795 233.694 194.854C246.457 196.149 259.344 199.378 269.823 206.755C280.307 214.133 288.058 226.202 287.845 239.017C287.689 247.527 283.393 255.986 276.807 261.144L276.812 261.149Z" fill="#482437"/>
<path d="M17.1038 149.11C25.0061 137.618 35.8263 127.46 49.234 123.649C62.6417 119.837 78.788 123.727 86.5895 135.292C93.7414 145.893 92.8509 160.417 100.025 171.001C106.662 180.789 119.101 185.532 125.401 195.544C130.072 202.966 130.66 212.529 128.078 220.916C125.502 229.302 120.013 236.573 113.461 242.403C95.7632 258.15 69.4799 263.543 47.0162 256.042C24.3228 248.463 11.5872 230.737 2.73277 209.62C-5.32639 190.398 5.90269 165.395 17.0981 149.11H17.1038Z" fill="#E57557"/>
<path d="M21.5054 153.651C28.6013 143.325 38.3238 134.204 50.3649 130.785C62.4117 127.36 76.9114 130.858 83.9177 141.245C90.3415 150.764 89.5407 163.815 95.9869 173.317C101.951 182.112 113.119 186.367 118.775 195.359C122.97 202.024 123.497 210.618 121.178 218.147C118.859 225.681 113.937 232.212 108.05 237.448C92.1505 251.591 68.5443 256.435 48.3711 249.696C27.9852 242.891 16.5489 226.97 8.59618 208C1.3603 190.734 11.4412 168.277 21.4998 153.651H21.5054Z" fill="#EF8C6A"/>
<path d="M54.6164 159.201C56.7054 160.031 58.016 161.152 59.1473 162.346C60.2282 163.557 61.0179 164.874 61.5555 166.292C62.0932 167.705 62.3732 169.219 62.362 170.844C62.306 172.487 62.0539 174.197 61.0234 176.204C58.9232 175.379 57.6071 174.258 56.4814 173.064C55.4005 171.853 54.6108 170.536 54.0788 169.112C53.5467 167.694 53.2667 166.18 53.2835 164.555C53.3451 162.912 53.586 161.202 54.6108 159.195L54.6164 159.201Z" fill="white"/>
<path d="M37.966 174.157C40.1278 173.546 41.8527 173.642 43.4769 173.9C45.0731 174.202 46.5012 174.774 47.7837 175.57C49.0718 176.366 50.2087 177.398 51.1832 178.698C52.1297 180.038 52.9754 181.546 53.373 183.771C51.2056 184.394 49.4751 184.298 47.8565 184.035C46.2604 183.732 44.8322 183.16 43.5553 182.353C42.2728 181.546 41.1303 180.514 40.1614 179.214C39.2149 177.868 38.3692 176.366 37.966 174.152V174.157Z" fill="white"/>
<path d="M29.1511 192.814C30.7864 191.272 32.3601 190.56 33.9227 190.044C35.4796 189.579 37.0086 189.422 38.5151 189.54C40.0217 189.652 41.5114 190.044 42.9732 190.745C44.4293 191.496 45.8742 192.444 47.252 194.238C45.611 195.79 44.0373 196.508 42.4803 197.018C40.9234 197.483 39.3944 197.64 37.8879 197.517C36.3813 197.394 34.8916 197.007 33.4299 196.301C31.9681 195.544 30.5288 194.602 29.1511 192.819V192.814Z" fill="white"/>
<path d="M93.2822 203.185C92.6606 201.021 91.6637 199.608 90.5884 198.369C89.4907 197.175 88.2529 196.261 86.892 195.589C85.5367 194.916 84.0582 194.496 82.4396 194.35C80.8043 194.249 79.0793 194.333 76.9791 195.168C77.6007 197.343 78.5864 198.756 79.6673 199.995C80.765 201.189 82.0028 202.103 83.3637 202.764C84.7246 203.431 86.2032 203.852 87.8217 203.992C89.4627 204.087 91.1876 204.009 93.2766 203.179L93.2822 203.185Z" fill="white"/>
<path d="M76.8167 218.343C77.6344 216.246 77.7016 214.52 77.6008 212.877C77.4496 211.257 77.0239 209.783 76.3519 208.426C75.6854 207.07 74.7669 205.831 73.5684 204.737C72.3307 203.667 70.9081 202.68 68.7295 202.069C67.9063 204.171 67.8335 205.898 67.9399 207.54C68.0911 209.155 68.5167 210.635 69.2 211.986C69.8776 213.342 70.7961 214.576 71.9947 215.669C73.238 216.74 74.6549 217.726 76.8223 218.343H76.8167Z" fill="white"/>
<path d="M57.4163 225.35C59.1077 223.865 59.9646 222.368 60.6254 220.86C61.2359 219.358 61.5383 217.844 61.5663 216.33C61.5999 214.817 61.3535 213.298 60.7935 211.773C60.1886 210.248 59.3765 208.718 57.73 207.176C56.0274 208.662 55.1649 210.158 54.5097 211.666C53.8992 213.169 53.5968 214.682 53.5744 216.196C53.552 217.709 53.7984 219.229 54.3584 220.753C54.9689 222.278 55.7698 223.809 57.4107 225.35H57.4163Z" fill="white"/>
<path d="M69.8442 181.434C73.0253 178.463 76.212 175.486 79.7348 172.941C80.7596 172.201 81.9638 171.467 83.2015 171.708C84.9376 172.05 85.7553 174.253 85.2793 175.957C84.8032 177.661 83.4479 178.956 82.1486 180.161C67.7888 193.481 53.4291 206.806 39.0749 220.125C38.3636 220.787 37.5684 221.488 36.5939 221.555C34.7905 221.684 33.5808 219.442 34.0064 217.681C34.4321 215.921 35.8826 214.626 37.2435 213.432C39.6742 211.302 40.8503 208.516 43.2249 206.301C46.2156 203.51 49.2119 200.712 52.2025 197.915C58.0831 192.421 63.9693 186.928 69.8498 181.434H69.8442Z" fill="#E57557"/>
<path d="M211.476 62.6007C218.908 69.3894 215.184 84.0992 205.416 86.5266C216.147 84.4524 227.6 92.7827 229.409 103.574C231.212 114.365 223.517 125.745 212.949 128.543C202.381 131.345 190.351 125.611 185.4 115.856C190.754 124.663 186.699 137.523 177.587 142.322C168.475 147.12 156.149 143.695 150.15 135.314C144.158 126.934 144.595 114.752 150.52 106.321C147.507 115.055 134.553 117.605 127.631 111.495C120.708 105.379 120.787 93.4947 126.847 86.521C132.906 79.5473 143.469 77.5123 152.262 80.3377C147.053 78.6671 144.488 54.1919 144.942 49.6007C145.765 41.3321 149.165 33.2989 157.963 31.505C179.441 27.1156 183.065 57.107 188.128 70.1743C191.085 61.1656 203.714 55.4981 211.487 62.6007H211.476Z" fill="#ABA15B"/>
<path d="M260.782 331.458C258.189 330.376 258.514 324.535 258.335 322.158C258.083 318.772 256.895 304.606 263.734 306.54C268.959 308.02 268.701 315.291 267.996 319.478C267.525 322.253 266.635 325.191 265.162 327.612C263.162 330.909 261.774 331.862 260.777 331.452L260.782 331.458Z" fill="#F2B973"/>
<path d="M249.095 363.109C247.98 360.524 252.27 356.556 253.793 354.722C255.961 352.11 264.944 341.095 268.517 347.25C271.245 351.947 266.014 356.998 262.597 359.521C260.329 361.192 257.652 362.683 254.913 363.4C251.189 364.376 249.526 364.101 249.095 363.114V363.109Z" fill="#F2B973"/>
<path d="M288.365 346.998C285.772 345.916 286.097 340.074 285.918 337.697C285.666 334.312 284.479 320.145 291.317 322.079C296.536 323.559 296.284 330.83 295.579 335.018C295.108 337.793 294.218 340.73 292.745 343.152C290.746 346.448 289.357 347.401 288.36 346.992L288.365 346.998Z" fill="#F2B973"/>
<path d="M321 158.5C315.562 162.049 310.079 163.882 304.59 165.317C299.096 166.674 293.585 167.335 288.063 167.492C282.541 167.632 277.002 167.251 271.447 166.175C265.891 165.025 260.324 163.461 254.712 160.171C260.15 156.6 265.633 154.761 271.122 153.332C276.616 151.981 282.127 151.319 287.649 151.179C293.171 151.056 298.71 151.437 304.266 152.519C309.821 153.674 315.388 155.226 321 158.495V158.5Z" fill="#ABA15B"/>
<path d="M60.5415 62.1354C55.4058 58.1552 51.8774 53.5752 48.7299 48.8495C45.644 44.1013 43.2134 39.1065 41.2588 33.9323C39.3154 28.7581 37.8593 23.3933 37.0528 17.7874C36.3136 12.1535 35.9663 6.37946 37.232 -0.00561523C42.3845 3.96334 45.9185 8.54333 49.066 13.2691C52.1463 18.0172 54.5769 23.0121 56.5147 28.1919C58.4413 33.3773 59.8974 38.7365 60.6983 44.3424C61.4319 49.9763 61.7904 55.7503 60.5415 62.1242V62.1354Z" fill="#ABA15B"/>
</g>
<defs>
<clipPath id="clip0_447_2159">
<rect width="321" height="364" fill="white" transform="matrix(-1 0 0 1 321 0)"/>
</clipPath>
</defs>
</svg>
